<?xml version="1.0" encoding="UTF-8" standalone="no"?><svg xmlns="http://www.w3.org/2000/svg" xmlns:xlink="http://www.w3.org/1999/xlink" contentScriptType="application/ecmascript" contentStyleType="text/css" height="699px" preserveAspectRatio="none" style="width:2367px;height:699px;background:#FFFFFF;" version="1.1" viewBox="0 0 2367 699" width="2367px" zoomAndPan="magnify"><defs><filter height="300%" id="f11t4cr5xdmfem" width="300%" x="-1" y="-1"><feGaussianBlur result="blurOut" stdDeviation="2.0"/><feColorMatrix in="blurOut" result="blurOut2" type="matrix" values="0 0 0 0 0 0 0 0 0 0 0 0 0 0 0 0 0 0 .4 0"/><feOffset dx="4.0" dy="4.0" in="blurOut2" result="blurOut3"/><feBlend in="SourceGraphic" in2="blurOut3" mode="normal"/></filter></defs><g><!--MD5=[e98ebe3490bbb2ea6f5530794af2bc99]
cluster src_b874d07--><polygon fill="#FFFFFF" filter="url(#f11t4cr5xdmfem)" points="16,6,45,6,52,28.2969,2350,28.2969,2350,692,16,692,16,6" style="stroke:#000000;stroke-width:1.5;"/><line style="stroke:#000000;stroke-width:1.5;" x1="16" x2="52" y1="28.2969" y2="28.2969"/><text fill="#000000" font-family="sans-serif" font-size="14" font-weight="bold" lengthAdjust="spacing" textLength="23" x="20" y="20.9951">src</text><!--MD5=[a74090c011d62fdd0f12d00dd765ee15]
cluster console_log_strategy_5838fe20--><polygon fill="#FFFFFF" filter="url(#f11t4cr5xdmfem)" points="40,49,211,49,218,71.2969,777,71.2969,777,576.5,40,576.5,40,49" style="stroke:#000000;stroke-width:1.5;"/><line style="stroke:#000000;stroke-width:1.5;" x1="40" x2="218" y1="71.2969" y2="71.2969"/><text fill="#000000" font-family="sans-serif" font-size="14" font-weight="bold" lengthAdjust="spacing" textLength="165" x="44" y="63.9951">console-log-strategy</text><!--MD5=[6c4bbb7175c07f5a76090a3eddbd09e4]
entity console_logger_params_d9ae554f--><rect fill="#FEFECE" filter="url(#f11t4cr5xdmfem)" height="79.1875" style="stroke:#000000;stroke-width:1.5;" width="328" x="1143" y="113.5"/><text fill="#000000" font-family="sans-serif" font-size="14" lengthAdjust="spacing" textLength="160" x="1153" y="129.4951">ConsoleLoggerParams</text><line style="stroke:#000000;stroke-width:1.0;" x1="1144" x2="1470" y1="132.7969" y2="132.7969"/><text fill="#000000" font-family="sans-serif" font-size="14" lengthAdjust="spacing" textLength="9" x="1153" y="149.792">{</text><text fill="#000000" font-family="sans-serif" font-size="14" lengthAdjust="spacing" textLength="300" x="1161" y="166.0889">consoleLogStrategy?: ConsoleLogStrategy</text><text fill="#000000" font-family="sans-serif" font-size="14" lengthAdjust="spacing" textLength="191" x="1153" y="182.3857">} &amp; LoggerStrategyParams</text><!--MD5=[a53be3e88ccb69ad8ec7d40e8da89113]
class console_logger_d9ae554f--><rect codeLine="9" fill="#FEFECE" filter="url(#f11t4cr5xdmfem)" height="394.2177" id="console_logger_d9ae554f" style="stroke:#A80036;stroke-width:1.5;" width="371" x="980.5" y="282"/><ellipse cx="1117.75" cy="298" fill="#ADD1B2" rx="11" ry="11" style="stroke:#A80036;stroke-width:1.0;"/><path d="M1120.2344,303.875 Q1119.6563,304.1875 1119.0156,304.3438 Q1118.375,304.5 1117.6719,304.5 Q1115.1563,304.5 1113.8281,302.8281 Q1112.5156,301.1563 1112.5156,298 Q1112.5156,294.8438 1113.8281,293.1719 Q1115.1563,291.5 1117.6719,291.5 Q1118.375,291.5 1119.0156,291.6563 Q1119.6719,291.8125 1120.2344,292.125 L1120.2344,294.9219 Q1119.5938,294.3438 1119,294.0781 Q1118.4063,293.8125 1117.7813,293.8125 Q1116.4375,293.8125 1115.75,294.875 Q1115.0625,295.9219 1115.0625,298 Q1115.0625,300.0781 1115.75,301.1406 Q1116.4375,302.1875 1117.7813,302.1875 Q1118.4063,302.1875 1119,301.9219 Q1119.5938,301.6563 1120.2344,301.0781 L1120.2344,303.875 Z " fill="#000000"/><text fill="#000000" font-family="sans-serif" font-size="12" lengthAdjust="spacing" textLength="88" x="1138.25" y="302.1543">ConsoleLogger</text><line style="stroke:#A80036;stroke-width:1.5;" x1="981.5" x2="1350.5" y1="314" y2="314"/><polygon fill="none" points="991.5,320,995.5,324,991.5,328,987.5,324" style="stroke:#B38D22;stroke-width:1.0;"/><text fill="#000000" font-family="sans-serif" font-size="11" lengthAdjust="spacing" textLength="238" x="1000.5" y="328.225">_consoleLogStrategy: ConsoleLogStrategy</text><polygon fill="none" points="991.5,332.8229,995.5,336.8229,991.5,340.8229,987.5,336.8229" style="stroke:#B38D22;stroke-width:1.0;"/><text fill="#000000" font-family="sans-serif" font-size="11" lengthAdjust="spacing" textLength="139" x="1000.5" y="341.0478">_logLevel: LogLevelType</text><polygon fill="none" points="991.5,345.6458,995.5,349.6458,991.5,353.6458,987.5,349.6458" style="stroke:#B38D22;stroke-width:1.0;"/><text fill="#000000" font-family="sans-serif" font-size="11" lengthAdjust="spacing" textLength="130" x="1000.5" y="353.8707">_messagePrefix: string</text><polygon fill="none" points="991.5,358.4686,995.5,362.4686,991.5,366.4686,987.5,362.4686" style="stroke:#B38D22;stroke-width:1.0;"/><text fill="#000000" font-family="sans-serif" font-size="11" lengthAdjust="spacing" textLength="107" x="1000.5" y="366.6936">_meta: ObjectType</text><line style="stroke:#A80036;stroke-width:1.5;" x1="981.5" x2="1350.5" y1="373.2915" y2="373.2915"/><ellipse cx="991.5" cy="384.2915" fill="#84BE84" rx="3" ry="3" style="stroke:#038048;stroke-width:1.0;"/><text fill="#000000" font-family="sans-serif" font-size="11" lengthAdjust="spacing" textLength="271" x="1000.5" y="387.5165">LogLevelToInt(logLevel: LogLevelType): number</text><polygon fill="#FFFF44" points="991.5,392.1144,995.5,396.1144,991.5,400.1144,987.5,396.1144" style="stroke:#B38D22;stroke-width:1.0;"/><text fill="#000000" font-family="sans-serif" font-size="11" lengthAdjust="spacing" textLength="192" x="1000.5" y="400.3393">_logMessage(type: LogLevelType,</text><text fill="#000000" font-family="sans-serif" font-size="11" lengthAdjust="spacing" textLength="268" x="1004.5" y="413.1622">...messageObjects: StringOrObjectType[]): void</text><polygon fill="#FFFF44" points="991.5,417.7601,995.5,421.7601,991.5,425.7601,987.5,421.7601" style="stroke:#B38D22;stroke-width:1.0;"/><text fill="#000000" font-family="sans-serif" font-size="11" lengthAdjust="spacing" textLength="281" x="1000.5" y="425.9851">_shouldLog(currentLevel: LogLevelType): boolean</text><ellipse cx="991.5" cy="435.583" fill="#84BE84" rx="3" ry="3" style="stroke:#038048;stroke-width:1.0;"/><text fill="#000000" font-family="sans-serif" font-size="11" lengthAdjust="spacing" textLength="345" x="1000.5" y="438.808">clone(params: LoggerStrategyParams = {}): LoggerStrategy</text><text fill="#000000" font-family="sans-serif" font-size="11" lengthAdjust="spacing" textLength="75" x="1000.5" y="451.6308">constructor({</text><text fill="#000000" font-family="sans-serif" font-size="11" lengthAdjust="spacing" textLength="0" x="1004.5" y="464.4537"/><text fill="#000000" font-family="sans-serif" font-size="11" lengthAdjust="spacing" textLength="190" x="1016.5" y="477.2766">logLevel = LogLevelType.ERROR,</text><text fill="#000000" font-family="sans-serif" font-size="11" lengthAdjust="spacing" textLength="0" x="1004.5" y="490.0995"/><text fill="#000000" font-family="sans-serif" font-size="11" lengthAdjust="spacing" textLength="270" x="1016.5" y="502.9223">consoleLogStrategy = new SimpleConsoleLog(),</text><text fill="#000000" font-family="sans-serif" font-size="11" lengthAdjust="spacing" textLength="0" x="1004.5" y="515.7452"/><text fill="#000000" font-family="sans-serif" font-size="11" lengthAdjust="spacing" textLength="88" x="1016.5" y="528.5681">messagePrefix,</text><text fill="#000000" font-family="sans-serif" font-size="11" lengthAdjust="spacing" textLength="0" x="1004.5" y="541.391"/><text fill="#000000" font-family="sans-serif" font-size="11" lengthAdjust="spacing" textLength="33" x="1016.5" y="554.2138">meta,</text><text fill="#000000" font-family="sans-serif" font-size="11" lengthAdjust="spacing" textLength="0" x="1004.5" y="567.0367"/><text fill="#000000" font-family="sans-serif" font-size="11" lengthAdjust="spacing" textLength="0" x="1008.5" y="579.8596"/><text fill="#000000" font-family="sans-serif" font-size="11" lengthAdjust="spacing" textLength="166" x="1000.5" y="592.6825">}: ConsoleLoggerParams = {</text><text fill="#000000" font-family="sans-serif" font-size="11" lengthAdjust="spacing" textLength="0" x="1004.5" y="605.5053"/><text fill="#000000" font-family="sans-serif" font-size="11" lengthAdjust="spacing" textLength="11" x="1000.5" y="618.3282">})</text><ellipse cx="991.5" cy="627.9261" fill="#84BE84" rx="3" ry="3" style="stroke:#038048;stroke-width:1.0;"/><text fill="#000000" font-family="sans-serif" font-size="11" lengthAdjust="spacing" textLength="307" x="1000.5" y="631.1511">debug(...messageObjects: StringOrObjectType[]): void</text><ellipse cx="991.5" cy="640.749" fill="#84BE84" rx="3" ry="3" style="stroke:#038048;stroke-width:1.0;"/><text fill="#000000" font-family="sans-serif" font-size="11" lengthAdjust="spacing" textLength="301" x="1000.5" y="643.974">error(...messageObjects: StringOrObjectType[]): void</text><ellipse cx="991.5" cy="653.5719" fill="#84BE84" rx="3" ry="3" style="stroke:#038048;stroke-width:1.0;"/><text fill="#000000" font-family="sans-serif" font-size="11" lengthAdjust="spacing" textLength="293" x="1000.5" y="656.7969">info(...messageObjects: StringOrObjectType[]): void</text><ellipse cx="991.5" cy="666.3948" fill="#84BE84" rx="3" ry="3" style="stroke:#038048;stroke-width:1.0;"/><text fill="#000000" font-family="sans-serif" font-size="11" lengthAdjust="spacing" textLength="300" x="1000.5" y="669.6197">warn(...messageObjects: StringOrObjectType[]): void</text><!--MD5=[5205ac13f1c65000d984d6ceea000cc0]
class log_level_type_94add8b--><rect codeLine="24" fill="#FEFECE" filter="url(#f11t4cr5xdmfem)" height="99.2915" id="log_level_type_94add8b" style="stroke:#A80036;stroke-width:1.5;" width="114" x="793" y="103.5"/><ellipse cx="808" cy="119.5" fill="#EB937F" rx="11" ry="11" style="stroke:#A80036;stroke-width:1.0;"/><path d="M812.125,126 L804.3906,126 L804.3906,113 L812.125,113 L812.125,115.2656 L806.8438,115.2656 L806.8438,118 L811.625,118 L811.625,120.2656 L806.8438,120.2656 L806.8438,123.7344 L812.125,123.7344 L812.125,126 Z " fill="#000000"/><text fill="#000000" font-family="sans-serif" font-size="12" lengthAdjust="spacing" textLength="82" x="822" y="123.6543">LogLevelType</text><line style="stroke:#A80036;stroke-width:1.5;" x1="794" x2="906" y1="135.5" y2="135.5"/><text fill="#000000" font-family="sans-serif" font-size="11" lengthAdjust="spacing" textLength="98" x="799" y="149.725">DEBUG = 'debug'</text><text fill="#000000" font-family="sans-serif" font-size="11" lengthAdjust="spacing" textLength="92" x="799" y="162.5478">ERROR = 'error'</text><text fill="#000000" font-family="sans-serif" font-size="11" lengthAdjust="spacing" textLength="70" x="799" y="175.3707">INFO = 'info'</text><text fill="#000000" font-family="sans-serif" font-size="11" lengthAdjust="spacing" textLength="86" x="799" y="188.1936">WARN = 'warn'</text><line style="stroke:#A80036;stroke-width:1.5;" x1="794" x2="906" y1="194.7915" y2="194.7915"/><!--MD5=[cb3a8e3bdf84be35e391c2ee83e219fe]
entity object_type_765b9703--><rect fill="#FEFECE" filter="url(#f11t4cr5xdmfem)" height="46.5938" style="stroke:#000000;stroke-width:1.5;" width="165" x="942.5" y="129.5"/><text fill="#000000" font-family="sans-serif" font-size="14" lengthAdjust="spacing" textLength="81" x="952.5" y="145.4951">ObjectType</text><line style="stroke:#000000;stroke-width:1.0;" x1="943.5" x2="1106.5" y1="148.7969" y2="148.7969"/><text fill="#000000" font-family="sans-serif" font-size="14" lengthAdjust="spacing" textLength="145" x="952.5" y="165.792">{ [key: string]: any }</text><!--MD5=[18f976dfe1ed70f069e8fdb3b033d01c]
entity string_or_object_type_765b9703--><rect fill="#FEFECE" filter="url(#f11t4cr5xdmfem)" height="46.5938" style="stroke:#000000;stroke-width:1.5;" width="160" x="2174" y="129.5"/><text fill="#000000" font-family="sans-serif" font-size="14" lengthAdjust="spacing" textLength="140" x="2184" y="145.4951">StringOrObjectType</text><line style="stroke:#000000;stroke-width:1.0;" x1="2175" x2="2333" y1="148.7969" y2="148.7969"/><text fill="#000000" font-family="sans-serif" font-size="14" lengthAdjust="spacing" textLength="134" x="2184" y="165.792">string | ObjectType</text><!--MD5=[1d9611b7b9af1b2882f7ae8e3bec317d]
entity logger_strategy_params_765b9703--><rect fill="#FEFECE" filter="url(#f11t4cr5xdmfem)" height="111.7813" style="stroke:#000000;stroke-width:1.5;" width="203" x="1506.5" y="97"/><text fill="#000000" font-family="sans-serif" font-size="14" lengthAdjust="spacing" textLength="163" x="1516.5" y="112.9951">LoggerStrategyParams</text><line style="stroke:#000000;stroke-width:1.0;" x1="1507.5" x2="1708.5" y1="116.2969" y2="116.2969"/><text fill="#000000" font-family="sans-serif" font-size="14" lengthAdjust="spacing" textLength="9" x="1516.5" y="133.292">{</text><text fill="#000000" font-family="sans-serif" font-size="14" lengthAdjust="spacing" textLength="175" x="1524.5" y="149.5889">logLevel?: LogLevelType</text><text fill="#000000" font-family="sans-serif" font-size="14" lengthAdjust="spacing" textLength="160" x="1524.5" y="165.8857">messagePrefix?: string</text><text fill="#000000" font-family="sans-serif" font-size="14" lengthAdjust="spacing" textLength="134" x="1524.5" y="182.1826">meta?: ObjectType</text><text fill="#000000" font-family="sans-serif" font-size="14" lengthAdjust="spacing" textLength="9" x="1516.5" y="198.4795">}</text><!--MD5=[746de81252bc920356b2e34b156b9647]
class logger_strategy_765b9703--><rect codeLine="49" fill="#FEFECE" filter="url(#f11t4cr5xdmfem)" height="112.1144" id="logger_strategy_765b9703" style="stroke:#A80036;stroke-width:1.5;" width="394" x="1745" y="97"/><ellipse cx="1890.75" cy="113" fill="#B4A7E5" rx="11" ry="11" style="stroke:#A80036;stroke-width:1.0;"/><path d="M1887.1719,108.7656 L1887.1719,106.5 L1894.5625,106.5 L1894.5625,108.7656 L1892.0938,108.7656 L1892.0938,117.2344 L1894.5625,117.2344 L1894.5625,119.5 L1887.1719,119.5 L1887.1719,117.2344 L1889.6406,117.2344 L1889.6406,108.7656 L1887.1719,108.7656 Z " fill="#000000"/><text fill="#000000" font-family="sans-serif" font-size="12" font-style="italic" lengthAdjust="spacing" textLength="94" x="1911.25" y="117.1543">LoggerStrategy</text><line style="stroke:#A80036;stroke-width:1.5;" x1="1746" x2="2138" y1="129" y2="129"/><line style="stroke:#A80036;stroke-width:1.5;" x1="1746" x2="2138" y1="137" y2="137"/><ellipse cx="1756" cy="148" fill="#84BE84" rx="3" ry="3" style="stroke:#038048;stroke-width:1.0;"/><text fill="#000000" font-family="sans-serif" font-size="11" lengthAdjust="spacing" textLength="307" x="1765" y="151.225">debug(...messageObjects: StringOrObjectType[]): void</text><ellipse cx="1756" cy="160.8229" fill="#84BE84" rx="3" ry="3" style="stroke:#038048;stroke-width:1.0;"/><text fill="#000000" font-family="sans-serif" font-size="11" lengthAdjust="spacing" textLength="293" x="1765" y="164.0478">info(...messageObjects: StringOrObjectType[]): void</text><ellipse cx="1756" cy="173.6458" fill="#84BE84" rx="3" ry="3" style="stroke:#038048;stroke-width:1.0;"/><text fill="#000000" font-family="sans-serif" font-size="11" lengthAdjust="spacing" textLength="300" x="1765" y="176.8707">warn(...messageObjects: StringOrObjectType[]): void</text><ellipse cx="1756" cy="186.4686" fill="#84BE84" rx="3" ry="3" style="stroke:#038048;stroke-width:1.0;"/><text fill="#000000" font-family="sans-serif" font-size="11" lengthAdjust="spacing" textLength="301" x="1765" y="189.6936">error(...messageObjects: StringOrObjectType[]): void</text><ellipse cx="1756" cy="199.2915" fill="#84BE84" rx="3" ry="3" style="stroke:#038048;stroke-width:1.0;"/><text fill="#000000" font-family="sans-serif" font-size="11" lengthAdjust="spacing" textLength="368" x="1765" y="202.5165">clone(overrideParams?: LoggerStrategyParams): LoggerStrategy</text><!--MD5=[4aefdd2d1cf77db69ee4b7c2100665eb]
class no_logger_efb5639--><rect codeLine="56" fill="#FEFECE" filter="url(#f11t4cr5xdmfem)" height="163.4059" id="no_logger_efb5639" style="stroke:#A80036;stroke-width:1.5;" width="276" x="1804" y="397.5"/><ellipse cx="1908.75" cy="413.5" fill="#ADD1B2" rx="11" ry="11" style="stroke:#A80036;stroke-width:1.0;"/><path d="M1911.2344,419.375 Q1910.6563,419.6875 1910.0156,419.8438 Q1909.375,420 1908.6719,420 Q1906.1563,420 1904.8281,418.3281 Q1903.5156,416.6563 1903.5156,413.5 Q1903.5156,410.3438 1904.8281,408.6719 Q1906.1563,407 1908.6719,407 Q1909.375,407 1910.0156,407.1563 Q1910.6719,407.3125 1911.2344,407.625 L1911.2344,410.4219 Q1910.5938,409.8438 1910,409.5781 Q1909.4063,409.3125 1908.7813,409.3125 Q1907.4375,409.3125 1906.75,410.375 Q1906.0625,411.4219 1906.0625,413.5 Q1906.0625,415.5781 1906.75,416.6406 Q1907.4375,417.6875 1908.7813,417.6875 Q1909.4063,417.6875 1910,417.4219 Q1910.5938,417.1563 1911.2344,416.5781 L1911.2344,419.375 Z " fill="#000000"/><text fill="#000000" font-family="sans-serif" font-size="12" lengthAdjust="spacing" textLength="58" x="1929.25" y="417.6543">NoLogger</text><line style="stroke:#A80036;stroke-width:1.5;" x1="1805" x2="2079" y1="429.5" y2="429.5"/><line style="stroke:#A80036;stroke-width:1.5;" x1="1805" x2="2079" y1="437.5" y2="437.5"/><ellipse cx="1815" cy="448.5" fill="#84BE84" rx="3" ry="3" style="stroke:#038048;stroke-width:1.0;"/><text fill="#000000" font-family="sans-serif" font-size="11" lengthAdjust="spacing" textLength="250" x="1824" y="451.725">clone(_?: LoggerStrategyParams): NoLogger</text><ellipse cx="1815" cy="461.3229" fill="#84BE84" rx="3" ry="3" style="stroke:#038048;stroke-width:1.0;"/><text fill="#000000" font-family="sans-serif" font-size="11" lengthAdjust="spacing" textLength="168" x="1824" y="464.5478">debug(_: StringOrObjectType,</text><text fill="#000000" font-family="sans-serif" font-size="11" lengthAdjust="spacing" textLength="173" x="1828" y="477.3707">__?: StringOrObjectType): void</text><ellipse cx="1815" cy="486.9686" fill="#84BE84" rx="3" ry="3" style="stroke:#038048;stroke-width:1.0;"/><text fill="#000000" font-family="sans-serif" font-size="11" lengthAdjust="spacing" textLength="162" x="1824" y="490.1936">error(_: StringOrObjectType,</text><text fill="#000000" font-family="sans-serif" font-size="11" lengthAdjust="spacing" textLength="173" x="1828" y="503.0165">__?: StringOrObjectType): void</text><ellipse cx="1815" cy="512.6144" fill="#84BE84" rx="3" ry="3" style="stroke:#038048;stroke-width:1.0;"/><text fill="#000000" font-family="sans-serif" font-size="11" lengthAdjust="spacing" textLength="154" x="1824" y="515.8393">info(_: StringOrObjectType,</text><text fill="#000000" font-family="sans-serif" font-size="11" lengthAdjust="spacing" textLength="173" x="1828" y="528.6622">__?: StringOrObjectType): void</text><ellipse cx="1815" cy="538.2601" fill="#84BE84" rx="3" ry="3" style="stroke:#038048;stroke-width:1.0;"/><text fill="#000000" font-family="sans-serif" font-size="11" lengthAdjust="spacing" textLength="161" x="1824" y="541.4851">warn(_: StringOrObjectType,</text><text fill="#000000" font-family="sans-serif" font-size="11" lengthAdjust="spacing" textLength="173" x="1828" y="554.308">__?: StringOrObjectType): void</text><!--MD5=[803ab979e6a9ae4e420cd25982a3abb5]
class console_log_strategy_7d0f5d8e--><rect codeLine="64" fill="#FEFECE" filter="url(#f11t4cr5xdmfem)" height="137.7601" id="console_log_strategy_7d0f5d8e" style="stroke:#A80036;stroke-width:1.5;" width="298" x="460" y="84"/><ellipse cx="544.75" cy="100" fill="#B4A7E5" rx="11" ry="11" style="stroke:#A80036;stroke-width:1.0;"/><path d="M541.1719,95.7656 L541.1719,93.5 L548.5625,93.5 L548.5625,95.7656 L546.0938,95.7656 L546.0938,104.2344 L548.5625,104.2344 L548.5625,106.5 L541.1719,106.5 L541.1719,104.2344 L543.6406,104.2344 L543.6406,95.7656 L541.1719,95.7656 Z " fill="#000000"/><text fill="#000000" font-family="sans-serif" font-size="12" font-style="italic" lengthAdjust="spacing" textLength="120" x="565.25" y="104.1543">ConsoleLogStrategy</text><line style="stroke:#A80036;stroke-width:1.5;" x1="461" x2="757" y1="116" y2="116"/><line style="stroke:#A80036;stroke-width:1.5;" x1="461" x2="757" y1="124" y2="124"/><ellipse cx="471" cy="135" fill="#84BE84" rx="3" ry="3" style="stroke:#038048;stroke-width:1.0;"/><text fill="#000000" font-family="sans-serif" font-size="11" lengthAdjust="spacing" textLength="79" x="480" y="138.225">log(params: {</text><text fill="#000000" font-family="sans-serif" font-size="11" lengthAdjust="spacing" textLength="115" x="484" y="151.0478">type: LogLevelType;</text><text fill="#000000" font-family="sans-serif" font-size="11" lengthAdjust="spacing" textLength="111" x="484" y="163.8707">meta?: ObjectType;</text><text fill="#000000" font-family="sans-serif" font-size="11" lengthAdjust="spacing" textLength="94" x="484" y="176.6936">datetime?: Date;</text><text fill="#000000" font-family="sans-serif" font-size="11" lengthAdjust="spacing" textLength="79" x="484" y="189.5165">prefix?: string</text><text fill="#000000" font-family="sans-serif" font-size="11" lengthAdjust="spacing" textLength="11" x="480" y="202.3393">},</text><text fill="#000000" font-family="sans-serif" font-size="11" lengthAdjust="spacing" textLength="268" x="484" y="215.1622">...messageObjects: StringOrObjectType[]): void</text><!--MD5=[d6a4f8cf523ab9d58ff404520d3642d8]
class new_relic_json_console_log_cea23840--><rect codeLine="67" fill="#FEFECE" filter="url(#f11t4cr5xdmfem)" height="163.4059" id="new_relic_json_console_log_cea23840" style="stroke:#A80036;stroke-width:1.5;" width="235" x="525.5" y="397.5"/><ellipse cx="565.7" cy="413.5" fill="#ADD1B2" rx="11" ry="11" style="stroke:#A80036;stroke-width:1.0;"/><path d="M568.1844,419.375 Q567.6063,419.6875 566.9656,419.8438 Q566.325,420 565.6219,420 Q563.1063,420 561.7781,418.3281 Q560.4656,416.6563 560.4656,413.5 Q560.4656,410.3438 561.7781,408.6719 Q563.1063,407 565.6219,407 Q566.325,407 566.9656,407.1563 Q567.6219,407.3125 568.1844,407.625 L568.1844,410.4219 Q567.5438,409.8438 566.95,409.5781 Q566.3563,409.3125 565.7313,409.3125 Q564.3875,409.3125 563.7,410.375 Q563.0125,411.4219 563.0125,413.5 Q563.0125,415.5781 563.7,416.6406 Q564.3875,417.6875 565.7313,417.6875 Q566.3563,417.6875 566.95,417.4219 Q567.5438,417.1563 568.1844,416.5781 L568.1844,419.375 Z " fill="#000000"/><text fill="#000000" font-family="sans-serif" font-size="12" lengthAdjust="spacing" textLength="147" x="585.3" y="417.6543">NewRelicJsonConsoleLog</text><line style="stroke:#A80036;stroke-width:1.5;" x1="526.5" x2="759.5" y1="429.5" y2="429.5"/><line style="stroke:#A80036;stroke-width:1.5;" x1="526.5" x2="759.5" y1="437.5" y2="437.5"/><polygon fill="#FFFF44" points="536.5,443.5,540.5,447.5,536.5,451.5,532.5,447.5" style="stroke:#B38D22;stroke-width:1.0;"/><text fill="#000000" font-family="sans-serif" font-size="11" lengthAdjust="spacing" textLength="156" x="545.5" y="451.725">_joinDefined(prefix?: string,</text><text fill="#000000" font-family="sans-serif" font-size="11" lengthAdjust="spacing" textLength="114" x="549.5" y="464.5478">msg?: string): string</text><ellipse cx="536.5" cy="474.1458" fill="#84BE84" rx="3" ry="3" style="stroke:#038048;stroke-width:1.0;"/><text fill="#000000" font-family="sans-serif" font-size="11" lengthAdjust="spacing" textLength="79" x="545.5" y="477.3707">log(params: {</text><text fill="#000000" font-family="sans-serif" font-size="11" lengthAdjust="spacing" textLength="115" x="549.5" y="490.1936">type: LogLevelType;</text><text fill="#000000" font-family="sans-serif" font-size="11" lengthAdjust="spacing" textLength="111" x="549.5" y="503.0165">meta?: ObjectType;</text><text fill="#000000" font-family="sans-serif" font-size="11" lengthAdjust="spacing" textLength="94" x="549.5" y="515.8393">datetime?: Date;</text><text fill="#000000" font-family="sans-serif" font-size="11" lengthAdjust="spacing" textLength="79" x="549.5" y="528.6622">prefix?: string</text><text fill="#000000" font-family="sans-serif" font-size="11" lengthAdjust="spacing" textLength="11" x="545.5" y="541.4851">},</text><text fill="#000000" font-family="sans-serif" font-size="11" lengthAdjust="spacing" textLength="205" x="549.5" y="554.308">...msgs: StringOrObjectType[]): void</text><!--MD5=[8410455bbfaf2160d6c095e2b0262a86]
class simple_console_log_8617eebb--><rect codeLine="71" fill="#FEFECE" filter="url(#f11t4cr5xdmfem)" height="150.583" id="simple_console_log_8617eebb" style="stroke:#A80036;stroke-width:1.5;" width="417" x="55.5" y="403.5"/><ellipse cx="205.25" cy="419.5" fill="#ADD1B2" rx="11" ry="11" style="stroke:#A80036;stroke-width:1.0;"/><path d="M207.7344,425.375 Q207.1563,425.6875 206.5156,425.8438 Q205.875,426 205.1719,426 Q202.6563,426 201.3281,424.3281 Q200.0156,422.6563 200.0156,419.5 Q200.0156,416.3438 201.3281,414.6719 Q202.6563,413 205.1719,413 Q205.875,413 206.5156,413.1563 Q207.1719,413.3125 207.7344,413.625 L207.7344,416.4219 Q207.0938,415.8438 206.5,415.5781 Q205.9063,415.3125 205.2813,415.3125 Q203.9375,415.3125 203.25,416.375 Q202.5625,417.4219 202.5625,419.5 Q202.5625,421.5781 203.25,422.6406 Q203.9375,423.6875 205.2813,423.6875 Q205.9063,423.6875 206.5,423.4219 Q207.0938,423.1563 207.7344,422.5781 L207.7344,425.375 Z " fill="#000000"/><text fill="#000000" font-family="sans-serif" font-size="12" lengthAdjust="spacing" textLength="109" x="225.75" y="423.6543">SimpleConsoleLog</text><line style="stroke:#A80036;stroke-width:1.5;" x1="56.5" x2="471.5" y1="435.5" y2="435.5"/><line style="stroke:#A80036;stroke-width:1.5;" x1="56.5" x2="471.5" y1="443.5" y2="443.5"/><ellipse cx="66.5" cy="454.5" fill="#84BE84" rx="3" ry="3" style="stroke:#038048;stroke-width:1.0;"/><text fill="#000000" font-family="sans-serif" font-size="11" lengthAdjust="spacing" textLength="391" x="75.5" y="457.725">LogTypeToFunction(type: LogLevelType): 'log' | 'info' | 'warn' | 'error'</text><ellipse cx="66.5" cy="467.3229" fill="#84BE84" rx="3" ry="3" style="stroke:#038048;stroke-width:1.0;"/><text fill="#000000" font-family="sans-serif" font-size="11" lengthAdjust="spacing" textLength="79" x="75.5" y="470.5478">log(params: {</text><text fill="#000000" font-family="sans-serif" font-size="11" lengthAdjust="spacing" textLength="115" x="79.5" y="483.3707">type: LogLevelType;</text><text fill="#000000" font-family="sans-serif" font-size="11" lengthAdjust="spacing" textLength="111" x="79.5" y="496.1936">meta?: ObjectType;</text><text fill="#000000" font-family="sans-serif" font-size="11" lengthAdjust="spacing" textLength="94" x="79.5" y="509.0165">datetime?: Date;</text><text fill="#000000" font-family="sans-serif" font-size="11" lengthAdjust="spacing" textLength="79" x="79.5" y="521.8393">prefix?: string</text><text fill="#000000" font-family="sans-serif" font-size="11" lengthAdjust="spacing" textLength="11" x="75.5" y="534.6622">},</text><text fill="#000000" font-family="sans-serif" font-size="11" lengthAdjust="spacing" textLength="205" x="79.5" y="547.4851">...msgs: StringOrObjectType[]): void</text><!--MD5=[80a21b125a5f3e40b08c134f17c7b351]
reverse link log_level_type_94add8b to new_relic_json_console_log_cea23840--><path codeLine="77" d="M814.34,206.94 C799,229.91 780.96,257.18 765,282 C740.83,319.59 714.57,361.62 692.63,397.08 " fill="none" id="log_level_type_94add8b-backto-new_relic_json_console_log_cea23840" style="stroke:#A80036;stroke-width:1.0;"/><polygon fill="#A80036" points="817.17,202.71,808.837,207.9599,814.3866,206.8637,815.4828,212.4133,817.17,202.71" style="stroke:#A80036;stroke-width:1.0;"/><!--MD5=[d7001e129f9b7bb4e051abf7573e9661]
reverse link object_type_765b9703 to new_relic_json_console_log_cea23840--><path codeLine="78" d="M991.36,179.85 C972.53,193.54 948.22,209.97 925,222 C857.56,256.93 823.75,233.87 765,282 C727.64,312.61 698.42,357.83 677.96,397.12 " fill="none" id="object_type_765b9703-backto-new_relic_json_console_log_cea23840" style="stroke:#A80036;stroke-width:1.0;"/><polygon fill="#A80036" points="995.53,176.79,985.9079,178.8911,991.4993,179.7487,990.6418,185.3401,995.53,176.79" style="stroke:#A80036;stroke-width:1.0;"/><!--MD5=[70c1a30d8114e36096a6f5b2168ecfb1]
reverse link console_log_strategy_7d0f5d8e to new_relic_json_console_log_cea23840--><path codeLine="79" d="M618.27,242.32 C623.35,290.74 629.6,350.33 634.55,397.48 " fill="none" id="console_log_strategy_7d0f5d8e-backto-new_relic_json_console_log_cea23840" style="stroke:#A80036;stroke-width:1.0;stroke-dasharray:7.0,7.0;"/><polygon fill="none" points="611.29,242.94,616.17,222.32,625.22,241.48,611.29,242.94" style="stroke:#A80036;stroke-width:1.0;"/><!--MD5=[c18eaae42ca13ef812223f02f084c148]
reverse link log_level_type_94add8b to simple_console_log_8617eebb--><path codeLine="80" d="M800.83,206.06 C793.31,212.1 785.28,217.64 777,222 C668.62,279.08 618.4,228.93 508,282 C444.95,312.31 383.6,361.71 338.19,403.33 " fill="none" id="log_level_type_94add8b-backto-simple_console_log_8617eebb" style="stroke:#A80036;stroke-width:1.0;"/><polygon fill="#A80036" points="804.96,202.66,795.4677,205.2862,801.0979,205.8355,800.5486,211.4657,804.96,202.66" style="stroke:#A80036;stroke-width:1.0;"/><!--MD5=[d585a81fc3e3587e252af6e39ad45fab]
reverse link object_type_765b9703 to simple_console_log_8617eebb--><path codeLine="81" d="M994.73,179.98 C975.9,194.71 950.48,212.12 925,222 C750.43,289.72 679.74,207.39 508,282 C442.84,310.31 380.59,360.83 335.28,403.49 " fill="none" id="object_type_765b9703-backto-simple_console_log_8617eebb" style="stroke:#A80036;stroke-width:1.0;"/><polygon fill="#A80036" points="998.89,176.69,989.3567,179.1633,994.9773,179.803,994.3376,185.4236,998.89,176.69" style="stroke:#A80036;stroke-width:1.0;"/><!--MD5=[ae62f257feb9056b7a86635bf9b8182f]
reverse link simple_console_log_8617eebb to simple_console_log_8617eebb--><path codeLine="82" d="M477.53,431.21 C495.97,441.35 507.5,457.28 507.5,479 C507.5,502.56 493.94,519.31 472.69,529.25 " fill="none" id="simple_console_log_8617eebb-backto-simple_console_log_8617eebb" style="stroke:#A80036;stroke-width:1.0;"/><polygon fill="#A80036" points="472.69,428.75,478.912,436.3846,477.1506,431.0089,482.5263,429.2475,472.69,428.75" style="stroke:#A80036;stroke-width:1.0;"/><!--MD5=[a44d72b8713ba502e9a35eb3639834b1]
reverse link console_log_strategy_7d0f5d8e to simple_console_log_8617eebb--><path codeLine="83" d="M521.6,236.08 C466.83,287.52 396.78,353.3 343.56,403.28 " fill="none" id="console_log_strategy_7d0f5d8e-backto-simple_console_log_8617eebb" style="stroke:#A80036;stroke-width:1.0;stroke-dasharray:7.0,7.0;"/><polygon fill="none" points="516.89,230.91,536.26,222.32,526.47,241.11,516.89,230.91" style="stroke:#A80036;stroke-width:1.0;"/><!--MD5=[deeccd4ff4e3cc417d20fa933c3c4ac9]
reverse link console_log_strategy_7d0f5d8e to console_logger_d9ae554f--><path codeLine="84" d="M730.45,224.64 C803.5,267.14 897.99,322.1 980.27,369.96 " fill="none" id="console_log_strategy_7d0f5d8e-backto-console_logger_d9ae554f" style="stroke:#A80036;stroke-width:1.0;"/><polygon fill="#A80036" points="726.1,222.12,731.8733,230.0993,730.4235,224.6314,735.8915,223.1816,726.1,222.12" style="stroke:#A80036;stroke-width:1.0;"/><!--MD5=[adb077c4f375ca8fbe415ba266e2753a]
reverse link log_level_type_94add8b to console_logger_d9ae554f--><path codeLine="85" d="M900.86,206.15 C923.27,229.12 951.12,257.68 980.27,287.57 " fill="none" id="log_level_type_94add8b-backto-console_logger_d9ae554f" style="stroke:#A80036;stroke-width:1.0;"/><polygon fill="#A80036" points="897.31,202.51,900.7525,211.7376,900.8096,206.0811,906.4662,206.1382,897.31,202.51" style="stroke:#A80036;stroke-width:1.0;"/><!--MD5=[1256361c1ddeb9cf7180626261583cbf]
reverse link logger_strategy_params_765b9703 to console_logger_d9ae554f--><path codeLine="86" d="M1528.65,212.17 C1479.3,248.34 1413.66,296.46 1351.8,341.8 " fill="none" id="logger_strategy_params_765b9703-backto-console_logger_d9ae554f" style="stroke:#A80036;stroke-width:1.0;"/><polygon fill="#A80036" points="1532.77,209.15,1523.1479,211.2511,1528.7393,212.1087,1527.8818,217.7001,1532.77,209.15" style="stroke:#A80036;stroke-width:1.0;"/><!--MD5=[64e4a54cd5183b83e644637ff8012aa1]
reverse link object_type_765b9703 to console_logger_d9ae554f--><path codeLine="87" d="M1036.93,181.41 C1047.29,205.21 1063.31,242.03 1080.59,281.73 " fill="none" id="object_type_765b9703-backto-console_logger_d9ae554f" style="stroke:#A80036;stroke-width:1.0;"/><polygon fill="#A80036" points="1034.8,176.53,1034.7315,186.3786,1036.7988,181.1131,1042.0644,183.1805,1034.8,176.53" style="stroke:#A80036;stroke-width:1.0;"/><!--MD5=[880c5a3d09bb4d2a3a3b0389a06a62df]
reverse link console_logger_params_d9ae554f to console_logger_d9ae554f--><path codeLine="88" d="M1288.05,197.54 C1278.09,220.43 1265.1,250.28 1251.32,281.95 " fill="none" id="console_logger_params_d9ae554f-backto-console_logger_d9ae554f" style="stroke:#A80036;stroke-width:1.0;"/><polygon fill="#A80036" points="1290.13,192.76,1282.8831,199.4295,1288.1432,197.3483,1290.2243,202.6084,1290.13,192.76" style="stroke:#A80036;stroke-width:1.0;"/><!--MD5=[3325e8552570e3c3de04523371ca4c63]
reverse link console_logger_d9ae554f to console_logger_d9ae554f--><path codeLine="89" d="M1356.59,429.61 C1374.9,439.65 1386.5,456.11 1386.5,479 C1386.5,503.83 1372.85,521.1 1351.8,530.8 " fill="none" id="console_logger_d9ae554f-backto-console_logger_d9ae554f" style="stroke:#A80036;stroke-width:1.0;"/><polygon fill="#A80036" points="1351.8,427.2,1358.0513,434.8106,1356.2693,429.4418,1361.6381,427.6598,1351.8,427.2" style="stroke:#A80036;stroke-width:1.0;"/><!--MD5=[a73370ad3e2548567e4dbf2a4e32fb26]
reverse link logger_strategy_765b9703 to console_logger_d9ae554f--><path codeLine="90" d="M1791.4,216.88 C1665.75,269.34 1486.14,344.33 1351.61,400.5 " fill="none" id="logger_strategy_765b9703-backto-console_logger_d9ae554f" style="stroke:#A80036;stroke-width:1.0;stroke-dasharray:7.0,7.0;"/><polygon fill="none" points="1788.77,210.39,1809.92,209.15,1794.16,223.31,1788.77,210.39" style="stroke:#A80036;stroke-width:1.0;"/><!--MD5=[d54e33b8b94ede24c039daa802ed0391]
reverse link logger_strategy_params_765b9703 to no_logger_efb5639--><path codeLine="91" d="M1668.83,213.01 C1722.07,264.66 1799.91,340.17 1858.9,397.38 " fill="none" id="logger_strategy_params_765b9703-backto-no_logger_efb5639" style="stroke:#A80036;stroke-width:1.0;"/><polygon fill="#A80036" points="1665.04,209.33,1668.7421,218.4566,1668.6392,212.8007,1674.2951,212.6978,1665.04,209.33" style="stroke:#A80036;stroke-width:1.0;"/><!--MD5=[2996c59834693d053f440b60645fcf34]
reverse link string_or_object_type_765b9703 to no_logger_efb5639--><path codeLine="92" d="M2228.63,180.34 C2183.59,227.12 2087.95,326.44 2019.54,397.48 " fill="none" id="string_or_object_type_765b9703-backto-no_logger_efb5639" style="stroke:#A80036;stroke-width:1.0;"/><polygon fill="#A80036" points="2232.31,176.53,2223.1834,180.2321,2228.8393,180.1292,2228.9422,185.7851,2232.31,176.53" style="stroke:#A80036;stroke-width:1.0;"/><!--MD5=[ed409c8d66884cc0604c469f351dc42e]
reverse link no_logger_efb5639 to no_logger_efb5639--><path codeLine="93" d="M2084.85,425.6 C2103.02,434.93 2115,452.73 2115,479 C2115,507.49 2100.9,526.02 2080.1,534.6 " fill="none" id="no_logger_efb5639-backto-no_logger_efb5639" style="stroke:#A80036;stroke-width:1.0;"/><polygon fill="#A80036" points="2080.1,423.4,2086.591,430.8072,2084.6385,425.498,2089.9478,423.5456,2080.1,423.4" style="stroke:#A80036;stroke-width:1.0;"/><!--MD5=[ee4e3616037fe6961fbaab1a85b8d9cb]
reverse link logger_strategy_765b9703 to no_logger_efb5639--><path codeLine="94" d="M1942,229.51 C1942,279.87 1942,346 1942,397.38 " fill="none" id="logger_strategy_765b9703-backto-no_logger_efb5639" style="stroke:#A80036;stroke-width:1.0;stroke-dasharray:7.0,7.0;"/><polygon fill="none" points="1935,229.33,1942,209.33,1949,229.33,1935,229.33" style="stroke:#A80036;stroke-width:1.0;"/><!--MD5=[d8bb319e6c2186c9f9ec191bc76bcaf1]
@startuml
    folder "src" as src_b874d07 {
      card console_logger_params_d9ae554f [
        ConsoleLoggerParams
        - - -
        {
          consoleLogStrategy?: ConsoleLogStrategy
        } & LoggerStrategyParams
      ]
      class "ConsoleLogger" as console_logger_d9ae554f {
        + LogLevelToInt(logLevel: LogLevelType): number
        # _consoleLogStrategy: ConsoleLogStrategy
        # _logLevel: LogLevelType
        # _logMessage(type: LogLevelType,\n ...messageObjects: StringOrObjectType[]): void
        # _messagePrefix: string
        # _meta: ObjectType
        # _shouldLog(currentLevel: LogLevelType): boolean
        + clone(params: LoggerStrategyParams = {}): LoggerStrategy
        constructor({\n\n    logLevel = LogLevelType.ERROR,\n\n    consoleLogStrategy = new SimpleConsoleLog(),\n\n    messagePrefix,\n\n    meta,\n\n  \n}: ConsoleLoggerParams = {\n\n})
        + debug(...messageObjects: StringOrObjectType[]): void
        + error(...messageObjects: StringOrObjectType[]): void
        + info(...messageObjects: StringOrObjectType[]): void
        + warn(...messageObjects: StringOrObjectType[]): void
      }
      enum "LogLevelType" as log_level_type_94add8b {
        DEBUG = 'debug'
        ERROR = 'error'
        INFO = 'info'
        WARN = 'warn'
      }
      card object_type_765b9703 [
        ObjectType
        - - -
        { [key: string]: any }
      ]
      card string_or_object_type_765b9703 [
        StringOrObjectType
        - - -
        string | ObjectType
      ]
      card logger_strategy_params_765b9703 [
        LoggerStrategyParams
        - - -
        {
          logLevel?: LogLevelType
          messagePrefix?: string
          meta?: ObjectType
        }
      ]
      interface "LoggerStrategy" as logger_strategy_765b9703 {
        + debug(...messageObjects: StringOrObjectType[]): void
        + info(...messageObjects: StringOrObjectType[]): void
        + warn(...messageObjects: StringOrObjectType[]): void
        + error(...messageObjects: StringOrObjectType[]): void
        + clone(overrideParams?: LoggerStrategyParams): LoggerStrategy
      }
      class "NoLogger" as no_logger_efb5639 {
        + clone(_?: LoggerStrategyParams): NoLogger
        + debug(_: StringOrObjectType,\n __?: StringOrObjectType): void
        + error(_: StringOrObjectType,\n __?: StringOrObjectType): void
        + info(_: StringOrObjectType,\n __?: StringOrObjectType): void
        + warn(_: StringOrObjectType,\n __?: StringOrObjectType): void
      }
      folder "console-log-strategy" as console_log_strategy_5838fe20 {
        interface "ConsoleLogStrategy" as console_log_strategy_7d0f5d8e {
          + log(params: {\n type: LogLevelType;\n meta?: ObjectType;\n datetime?: Date;\n prefix?: string \n},\n ...messageObjects: StringOrObjectType[]): void
        }
        class "NewRelicJsonConsoleLog" as new_relic_json_console_log_cea23840 {
          # _joinDefined(prefix?: string,\n msg?: string): string
          + log(params: {\n type: LogLevelType;\n meta?: ObjectType;\n datetime?: Date;\n prefix?: string \n},\n ...msgs: StringOrObjectType[]): void
        }
        class "SimpleConsoleLog" as simple_console_log_8617eebb {
          + LogTypeToFunction(type: LogLevelType): 'log' | 'info' | 'warn' | 'error'
          + log(params: {\n type: LogLevelType;\n meta?: ObjectType;\n datetime?: Date;\n prefix?: string \n},\n ...msgs: StringOrObjectType[]): void
        }
      }
    }
  new_relic_json_console_log_cea23840 -up-> log_level_type_94add8b
  new_relic_json_console_log_cea23840 -up-> object_type_765b9703
  new_relic_json_console_log_cea23840 .up.|> console_log_strategy_7d0f5d8e
  simple_console_log_8617eebb -up-> log_level_type_94add8b
  simple_console_log_8617eebb -up-> object_type_765b9703
  simple_console_log_8617eebb -up-> simple_console_log_8617eebb
  simple_console_log_8617eebb .up.|> console_log_strategy_7d0f5d8e
  console_logger_d9ae554f -up-> console_log_strategy_7d0f5d8e
  console_logger_d9ae554f -up-> log_level_type_94add8b
  console_logger_d9ae554f -up-> logger_strategy_params_765b9703
  console_logger_d9ae554f -up-> object_type_765b9703
  console_logger_d9ae554f -up-> console_logger_params_d9ae554f
  console_logger_d9ae554f -up-> console_logger_d9ae554f
  console_logger_d9ae554f .up.|> logger_strategy_765b9703
  no_logger_efb5639 -up-> logger_strategy_params_765b9703
  no_logger_efb5639 -up-> string_or_object_type_765b9703
  no_logger_efb5639 -up-> no_logger_efb5639
  no_logger_efb5639 .up.|> logger_strategy_765b9703
@enduml

PlantUML version 1.2021.11(Sat Oct 02 15:26:11 CEST 2021)
(GPL source distribution)
Java Runtime: OpenJDK Runtime Environment
JVM: OpenJDK 64-Bit Server VM
Default Encoding: UTF-8
Language: en
Country: US
--></g></svg>