<?xml version="1.0" encoding="UTF-8" standalone="no"?><svg xmlns="http://www.w3.org/2000/svg" xmlns:xlink="http://www.w3.org/1999/xlink" contentScriptType="application/ecmascript" contentStyleType="text/css" height="622px" preserveAspectRatio="none" style="width:1517px;height:622px;background:#FFFFFF;" version="1.1" viewBox="0 0 1517 622" width="1517px" zoomAndPan="magnify"><defs><filter height="300%" id="f1ap8ffo1q5yf9" width="300%" x="-1" y="-1"><feGaussianBlur result="blurOut" stdDeviation="2.0"/><feColorMatrix in="blurOut" result="blurOut2" type="matrix" values="0 0 0 0 0 0 0 0 0 0 0 0 0 0 0 0 0 0 .4 0"/><feOffset dx="4.0" dy="4.0" in="blurOut2" result="blurOut3"/><feBlend in="SourceGraphic" in2="blurOut3" mode="normal"/></filter></defs><g><!--MD5=[e98ebe3490bbb2ea6f5530794af2bc99]
cluster src_b874d07--><polygon fill="#FFFFFF" filter="url(#f1ap8ffo1q5yf9)" points="16,6,45,6,52,28.2969,1500,28.2969,1500,615,16,615,16,6" style="stroke:#000000;stroke-width:1.5;"/><line style="stroke:#000000;stroke-width:1.5;" x1="16" x2="52" y1="28.2969" y2="28.2969"/><text fill="#000000" font-family="sans-serif" font-size="14" font-weight="bold" lengthAdjust="spacing" textLength="23" x="20" y="20.9951">src</text><!--MD5=[a74090c011d62fdd0f12d00dd765ee15]
cluster console_log_strategy_5838fe20--><polygon fill="#FFFFFF" filter="url(#f1ap8ffo1q5yf9)" points="40,49,211,49,218,71.2969,790,71.2969,790,525.5,40,525.5,40,49" style="stroke:#000000;stroke-width:1.5;"/><line style="stroke:#000000;stroke-width:1.5;" x1="40" x2="218" y1="71.2969" y2="71.2969"/><text fill="#000000" font-family="sans-serif" font-size="14" font-weight="bold" lengthAdjust="spacing" textLength="165" x="44" y="63.9951">console-log-strategy</text><!--MD5=[a53be3e88ccb69ad8ec7d40e8da89113]
class console_logger_d9ae554f--><rect codeLine="2" fill="#FEFECE" filter="url(#f1ap8ffo1q5yf9)" height="317.2804" id="console_logger_d9ae554f" style="stroke:#A80036;stroke-width:1.5;" width="307" x="846.5" y="282"/><ellipse cx="951.75" cy="298" fill="#ADD1B2" rx="11" ry="11" style="stroke:#A80036;stroke-width:1.0;"/><path d="M954.2344,303.875 Q953.6563,304.1875 953.0156,304.3438 Q952.375,304.5 951.6719,304.5 Q949.1563,304.5 947.8281,302.8281 Q946.5156,301.1563 946.5156,298 Q946.5156,294.8438 947.8281,293.1719 Q949.1563,291.5 951.6719,291.5 Q952.375,291.5 953.0156,291.6563 Q953.6719,291.8125 954.2344,292.125 L954.2344,294.9219 Q953.5938,294.3438 953,294.0781 Q952.4063,293.8125 951.7813,293.8125 Q950.4375,293.8125 949.75,294.875 Q949.0625,295.9219 949.0625,298 Q949.0625,300.0781 949.75,301.1406 Q950.4375,302.1875 951.7813,302.1875 Q952.4063,302.1875 953,301.9219 Q953.5938,301.6563 954.2344,301.0781 L954.2344,303.875 Z " fill="#000000"/><text fill="#000000" font-family="sans-serif" font-size="12" lengthAdjust="spacing" textLength="88" x="972.25" y="302.1543">ConsoleLogger</text><line style="stroke:#A80036;stroke-width:1.5;" x1="847.5" x2="1152.5" y1="314" y2="314"/><polygon fill="none" points="857.5,320,861.5,324,857.5,328,853.5,324" style="stroke:#B38D22;stroke-width:1.0;"/><text fill="#000000" font-family="sans-serif" font-size="11" lengthAdjust="spacing" textLength="238" x="866.5" y="328.225">_consoleLogStrategy: ConsoleLogStrategy</text><polygon fill="none" points="857.5,332.8229,861.5,336.8229,857.5,340.8229,853.5,336.8229" style="stroke:#B38D22;stroke-width:1.0;"/><text fill="#000000" font-family="sans-serif" font-size="11" lengthAdjust="spacing" textLength="139" x="866.5" y="341.0478">_logLevel: LogLevelType</text><line style="stroke:#A80036;stroke-width:1.5;" x1="847.5" x2="1152.5" y1="347.6458" y2="347.6458"/><ellipse cx="857.5" cy="358.6458" fill="#84BE84" rx="3" ry="3" style="stroke:#038048;stroke-width:1.0;"/><text fill="#000000" font-family="sans-serif" font-size="11" lengthAdjust="spacing" textLength="271" x="866.5" y="361.8707">LogLevelToInt(logLevel: LogLevelType): number</text><polygon fill="#FFFF44" points="857.5,366.4686,861.5,370.4686,857.5,374.4686,853.5,370.4686" style="stroke:#B38D22;stroke-width:1.0;"/><text fill="#000000" font-family="sans-serif" font-size="11" lengthAdjust="spacing" textLength="192" x="866.5" y="374.6936">_logMessage(type: LogLevelType,</text><text fill="#000000" font-family="sans-serif" font-size="11" lengthAdjust="spacing" textLength="210" x="870.5" y="387.5165">messageObject: StringOrObjectType,</text><text fill="#000000" font-family="sans-serif" font-size="11" lengthAdjust="spacing" textLength="190" x="870.5" y="400.3393">meta?: StringOrObjectType): void</text><polygon fill="#FFFF44" points="857.5,404.9373,861.5,408.9373,857.5,412.9373,853.5,408.9373" style="stroke:#B38D22;stroke-width:1.0;"/><text fill="#000000" font-family="sans-serif" font-size="11" lengthAdjust="spacing" textLength="281" x="866.5" y="413.1622">_shouldLog(currentLevel: LogLevelType): boolean</text><text fill="#000000" font-family="sans-serif" font-size="11" lengthAdjust="spacing" textLength="126" x="866.5" y="425.9851">constructor(params: {</text><text fill="#000000" font-family="sans-serif" font-size="11" lengthAdjust="spacing" textLength="143" x="870.5" y="438.808">logLevel?: LogLevelType;</text><text fill="#000000" font-family="sans-serif" font-size="11" lengthAdjust="spacing" textLength="238" x="870.5" y="451.6308">consoleLogStrategy?: ConsoleLogStrategy</text><text fill="#000000" font-family="sans-serif" font-size="11" lengthAdjust="spacing" textLength="31" x="866.5" y="464.4537">} = {</text><text fill="#000000" font-family="sans-serif" font-size="11" lengthAdjust="spacing" textLength="0" x="870.5" y="477.2766"/><text fill="#000000" font-family="sans-serif" font-size="11" lengthAdjust="spacing" textLength="11" x="866.5" y="490.0995">})</text><ellipse cx="857.5" cy="499.6974" fill="#84BE84" rx="3" ry="3" style="stroke:#038048;stroke-width:1.0;"/><text fill="#000000" font-family="sans-serif" font-size="11" lengthAdjust="spacing" textLength="249" x="866.5" y="502.9223">debug(messageObject: StringOrObjectType,</text><text fill="#000000" font-family="sans-serif" font-size="11" lengthAdjust="spacing" textLength="190" x="870.5" y="515.7452">meta?: StringOrObjectType): void</text><ellipse cx="857.5" cy="525.3431" fill="#84BE84" rx="3" ry="3" style="stroke:#038048;stroke-width:1.0;"/><text fill="#000000" font-family="sans-serif" font-size="11" lengthAdjust="spacing" textLength="243" x="866.5" y="528.5681">error(messageObject: StringOrObjectType,</text><text fill="#000000" font-family="sans-serif" font-size="11" lengthAdjust="spacing" textLength="190" x="870.5" y="541.391">meta?: StringOrObjectType): void</text><ellipse cx="857.5" cy="550.9889" fill="#84BE84" rx="3" ry="3" style="stroke:#038048;stroke-width:1.0;"/><text fill="#000000" font-family="sans-serif" font-size="11" lengthAdjust="spacing" textLength="235" x="866.5" y="554.2138">info(messageObject: StringOrObjectType,</text><text fill="#000000" font-family="sans-serif" font-size="11" lengthAdjust="spacing" textLength="190" x="870.5" y="567.0367">meta?: StringOrObjectType): void</text><ellipse cx="857.5" cy="576.6346" fill="#84BE84" rx="3" ry="3" style="stroke:#038048;stroke-width:1.0;"/><text fill="#000000" font-family="sans-serif" font-size="11" lengthAdjust="spacing" textLength="242" x="866.5" y="579.8596">warn(messageObject: StringOrObjectType,</text><text fill="#000000" font-family="sans-serif" font-size="11" lengthAdjust="spacing" textLength="190" x="870.5" y="592.6825">meta?: StringOrObjectType): void</text><!--MD5=[5205ac13f1c65000d984d6ceea000cc0]
class log_level_type_94add8b--><rect codeLine="14" fill="#FEFECE" filter="url(#f1ap8ffo1q5yf9)" height="99.2915" id="log_level_type_94add8b" style="stroke:#A80036;stroke-width:1.5;" width="114" x="806" y="97"/><ellipse cx="821" cy="113" fill="#EB937F" rx="11" ry="11" style="stroke:#A80036;stroke-width:1.0;"/><path d="M825.125,119.5 L817.3906,119.5 L817.3906,106.5 L825.125,106.5 L825.125,108.7656 L819.8438,108.7656 L819.8438,111.5 L824.625,111.5 L824.625,113.7656 L819.8438,113.7656 L819.8438,117.2344 L825.125,117.2344 L825.125,119.5 Z " fill="#000000"/><text fill="#000000" font-family="sans-serif" font-size="12" lengthAdjust="spacing" textLength="82" x="835" y="117.1543">LogLevelType</text><line style="stroke:#A80036;stroke-width:1.5;" x1="807" x2="919" y1="129" y2="129"/><text fill="#000000" font-family="sans-serif" font-size="11" lengthAdjust="spacing" textLength="98" x="812" y="143.225">DEBUG = 'debug'</text><text fill="#000000" font-family="sans-serif" font-size="11" lengthAdjust="spacing" textLength="92" x="812" y="156.0478">ERROR = 'error'</text><text fill="#000000" font-family="sans-serif" font-size="11" lengthAdjust="spacing" textLength="70" x="812" y="168.8707">INFO = 'info'</text><text fill="#000000" font-family="sans-serif" font-size="11" lengthAdjust="spacing" textLength="86" x="812" y="181.6936">WARN = 'warn'</text><line style="stroke:#A80036;stroke-width:1.5;" x1="807" x2="919" y1="188.2915" y2="188.2915"/><!--MD5=[18f976dfe1ed70f069e8fdb3b033d01c]
entity string_or_object_type_765b9703--><rect fill="#FEFECE" filter="url(#f1ap8ffo1q5yf9)" height="46.5938" style="stroke:#000000;stroke-width:1.5;" width="218" x="955" y="123"/><text fill="#000000" font-family="sans-serif" font-size="14" lengthAdjust="spacing" textLength="140" x="965" y="138.9951">StringOrObjectType</text><line style="stroke:#000000;stroke-width:1.0;" x1="956" x2="1172" y1="142.2969" y2="142.2969"/><text fill="#000000" font-family="sans-serif" font-size="14" lengthAdjust="spacing" textLength="198" x="965" y="159.292">string | { [key: string]: any }</text><!--MD5=[746de81252bc920356b2e34b156b9647]
class logger_strategy_765b9703--><rect codeLine="25" fill="#FEFECE" filter="url(#f1ap8ffo1q5yf9)" height="150.583" id="logger_strategy_765b9703" style="stroke:#A80036;stroke-width:1.5;" width="275" x="1208.5" y="71"/><ellipse cx="1294.75" cy="87" fill="#B4A7E5" rx="11" ry="11" style="stroke:#A80036;stroke-width:1.0;"/><path d="M1291.1719,82.7656 L1291.1719,80.5 L1298.5625,80.5 L1298.5625,82.7656 L1296.0938,82.7656 L1296.0938,91.2344 L1298.5625,91.2344 L1298.5625,93.5 L1291.1719,93.5 L1291.1719,91.2344 L1293.6406,91.2344 L1293.6406,82.7656 L1291.1719,82.7656 Z " fill="#000000"/><text fill="#000000" font-family="sans-serif" font-size="12" font-style="italic" lengthAdjust="spacing" textLength="94" x="1315.25" y="91.1543">LoggerStrategy</text><line style="stroke:#A80036;stroke-width:1.5;" x1="1209.5" x2="1482.5" y1="103" y2="103"/><line style="stroke:#A80036;stroke-width:1.5;" x1="1209.5" x2="1482.5" y1="111" y2="111"/><ellipse cx="1219.5" cy="122" fill="#84BE84" rx="3" ry="3" style="stroke:#038048;stroke-width:1.0;"/><text fill="#000000" font-family="sans-serif" font-size="11" lengthAdjust="spacing" textLength="249" x="1228.5" y="125.225">debug(messageObject: StringOrObjectType,</text><text fill="#000000" font-family="sans-serif" font-size="11" lengthAdjust="spacing" textLength="190" x="1232.5" y="138.0478">meta?: StringOrObjectType): void</text><ellipse cx="1219.5" cy="147.6458" fill="#84BE84" rx="3" ry="3" style="stroke:#038048;stroke-width:1.0;"/><text fill="#000000" font-family="sans-serif" font-size="11" lengthAdjust="spacing" textLength="235" x="1228.5" y="150.8707">info(messageObject: StringOrObjectType,</text><text fill="#000000" font-family="sans-serif" font-size="11" lengthAdjust="spacing" textLength="190" x="1232.5" y="163.6936">meta?: StringOrObjectType): void</text><ellipse cx="1219.5" cy="173.2915" fill="#84BE84" rx="3" ry="3" style="stroke:#038048;stroke-width:1.0;"/><text fill="#000000" font-family="sans-serif" font-size="11" lengthAdjust="spacing" textLength="242" x="1228.5" y="176.5165">warn(messageObject: StringOrObjectType,</text><text fill="#000000" font-family="sans-serif" font-size="11" lengthAdjust="spacing" textLength="190" x="1232.5" y="189.3393">meta?: StringOrObjectType): void</text><ellipse cx="1219.5" cy="198.9373" fill="#84BE84" rx="3" ry="3" style="stroke:#038048;stroke-width:1.0;"/><text fill="#000000" font-family="sans-serif" font-size="11" lengthAdjust="spacing" textLength="243" x="1228.5" y="202.1622">error(messageObject: StringOrObjectType,</text><text fill="#000000" font-family="sans-serif" font-size="11" lengthAdjust="spacing" textLength="190" x="1232.5" y="214.9851">meta?: StringOrObjectType): void</text><!--MD5=[4aefdd2d1cf77db69ee4b7c2100665eb]
class no_logger_efb5639--><rect codeLine="31" fill="#FEFECE" filter="url(#f1ap8ffo1q5yf9)" height="150.583" id="no_logger_efb5639" style="stroke:#A80036;stroke-width:1.5;" width="203" x="1225.5" y="365"/><ellipse cx="1293.75" cy="381" fill="#ADD1B2" rx="11" ry="11" style="stroke:#A80036;stroke-width:1.0;"/><path d="M1296.2344,386.875 Q1295.6563,387.1875 1295.0156,387.3438 Q1294.375,387.5 1293.6719,387.5 Q1291.1563,387.5 1289.8281,385.8281 Q1288.5156,384.1563 1288.5156,381 Q1288.5156,377.8438 1289.8281,376.1719 Q1291.1563,374.5 1293.6719,374.5 Q1294.375,374.5 1295.0156,374.6563 Q1295.6719,374.8125 1296.2344,375.125 L1296.2344,377.9219 Q1295.5938,377.3438 1295,377.0781 Q1294.4063,376.8125 1293.7813,376.8125 Q1292.4375,376.8125 1291.75,377.875 Q1291.0625,378.9219 1291.0625,381 Q1291.0625,383.0781 1291.75,384.1406 Q1292.4375,385.1875 1293.7813,385.1875 Q1294.4063,385.1875 1295,384.9219 Q1295.5938,384.6563 1296.2344,384.0781 L1296.2344,386.875 Z " fill="#000000"/><text fill="#000000" font-family="sans-serif" font-size="12" lengthAdjust="spacing" textLength="58" x="1314.25" y="385.1543">NoLogger</text><line style="stroke:#A80036;stroke-width:1.5;" x1="1226.5" x2="1427.5" y1="397" y2="397"/><line style="stroke:#A80036;stroke-width:1.5;" x1="1226.5" x2="1427.5" y1="405" y2="405"/><ellipse cx="1236.5" cy="416" fill="#84BE84" rx="3" ry="3" style="stroke:#038048;stroke-width:1.0;"/><text fill="#000000" font-family="sans-serif" font-size="11" lengthAdjust="spacing" textLength="168" x="1245.5" y="419.225">debug(_: StringOrObjectType,</text><text fill="#000000" font-family="sans-serif" font-size="11" lengthAdjust="spacing" textLength="173" x="1249.5" y="432.0478">__?: StringOrObjectType): void</text><ellipse cx="1236.5" cy="441.6458" fill="#84BE84" rx="3" ry="3" style="stroke:#038048;stroke-width:1.0;"/><text fill="#000000" font-family="sans-serif" font-size="11" lengthAdjust="spacing" textLength="162" x="1245.5" y="444.8707">error(_: StringOrObjectType,</text><text fill="#000000" font-family="sans-serif" font-size="11" lengthAdjust="spacing" textLength="173" x="1249.5" y="457.6936">__?: StringOrObjectType): void</text><ellipse cx="1236.5" cy="467.2915" fill="#84BE84" rx="3" ry="3" style="stroke:#038048;stroke-width:1.0;"/><text fill="#000000" font-family="sans-serif" font-size="11" lengthAdjust="spacing" textLength="154" x="1245.5" y="470.5165">info(_: StringOrObjectType,</text><text fill="#000000" font-family="sans-serif" font-size="11" lengthAdjust="spacing" textLength="173" x="1249.5" y="483.3393">__?: StringOrObjectType): void</text><ellipse cx="1236.5" cy="492.9373" fill="#84BE84" rx="3" ry="3" style="stroke:#038048;stroke-width:1.0;"/><text fill="#000000" font-family="sans-serif" font-size="11" lengthAdjust="spacing" textLength="161" x="1245.5" y="496.1622">warn(_: StringOrObjectType,</text><text fill="#000000" font-family="sans-serif" font-size="11" lengthAdjust="spacing" textLength="173" x="1249.5" y="508.9851">__?: StringOrObjectType): void</text><!--MD5=[803ab979e6a9ae4e420cd25982a3abb5]
class console_log_strategy_7d0f5d8e--><rect codeLine="38" fill="#FEFECE" filter="url(#f1ap8ffo1q5yf9)" height="124.9373" id="console_log_strategy_7d0f5d8e" style="stroke:#A80036;stroke-width:1.5;" width="240" x="530" y="84"/><ellipse cx="585.75" cy="100" fill="#B4A7E5" rx="11" ry="11" style="stroke:#A80036;stroke-width:1.0;"/><path d="M582.1719,95.7656 L582.1719,93.5 L589.5625,93.5 L589.5625,95.7656 L587.0938,95.7656 L587.0938,104.2344 L589.5625,104.2344 L589.5625,106.5 L582.1719,106.5 L582.1719,104.2344 L584.6406,104.2344 L584.6406,95.7656 L582.1719,95.7656 Z " fill="#000000"/><text fill="#000000" font-family="sans-serif" font-size="12" font-style="italic" lengthAdjust="spacing" textLength="120" x="606.25" y="104.1543">ConsoleLogStrategy</text><line style="stroke:#A80036;stroke-width:1.5;" x1="531" x2="769" y1="116" y2="116"/><line style="stroke:#A80036;stroke-width:1.5;" x1="531" x2="769" y1="124" y2="124"/><ellipse cx="541" cy="135" fill="#84BE84" rx="3" ry="3" style="stroke:#038048;stroke-width:1.0;"/><text fill="#000000" font-family="sans-serif" font-size="11" lengthAdjust="spacing" textLength="79" x="550" y="138.225">log(params: {</text><text fill="#000000" font-family="sans-serif" font-size="11" lengthAdjust="spacing" textLength="115" x="554" y="151.0478">type: LogLevelType;</text><text fill="#000000" font-family="sans-serif" font-size="11" lengthAdjust="spacing" textLength="210" x="554" y="163.8707">messageObject: StringOrObjectType;</text><text fill="#000000" font-family="sans-serif" font-size="11" lengthAdjust="spacing" textLength="158" x="554" y="176.6936">meta?: StringOrObjectType;</text><text fill="#000000" font-family="sans-serif" font-size="11" lengthAdjust="spacing" textLength="90" x="554" y="189.5165">datetime?: Date</text><text fill="#000000" font-family="sans-serif" font-size="11" lengthAdjust="spacing" textLength="43" x="550" y="202.3393">}): void</text><!--MD5=[d6a4f8cf523ab9d58ff404520d3642d8]
class new_relic_json_console_log_cea23840--><rect codeLine="41" fill="#FEFECE" filter="url(#f1ap8ffo1q5yf9)" height="124.9373" id="new_relic_json_console_log_cea23840" style="stroke:#A80036;stroke-width:1.5;" width="248" x="526" y="378"/><ellipse cx="572.25" cy="394" fill="#ADD1B2" rx="11" ry="11" style="stroke:#A80036;stroke-width:1.0;"/><path d="M574.7344,399.875 Q574.1563,400.1875 573.5156,400.3438 Q572.875,400.5 572.1719,400.5 Q569.6563,400.5 568.3281,398.8281 Q567.0156,397.1563 567.0156,394 Q567.0156,390.8438 568.3281,389.1719 Q569.6563,387.5 572.1719,387.5 Q572.875,387.5 573.5156,387.6563 Q574.1719,387.8125 574.7344,388.125 L574.7344,390.9219 Q574.0938,390.3438 573.5,390.0781 Q572.9063,389.8125 572.2813,389.8125 Q570.9375,389.8125 570.25,390.875 Q569.5625,391.9219 569.5625,394 Q569.5625,396.0781 570.25,397.1406 Q570.9375,398.1875 572.2813,398.1875 Q572.9063,398.1875 573.5,397.9219 Q574.0938,397.6563 574.7344,397.0781 L574.7344,399.875 Z " fill="#000000"/><text fill="#000000" font-family="sans-serif" font-size="12" lengthAdjust="spacing" textLength="147" x="592.75" y="398.1543">NewRelicJsonConsoleLog</text><line style="stroke:#A80036;stroke-width:1.5;" x1="527" x2="773" y1="410" y2="410"/><line style="stroke:#A80036;stroke-width:1.5;" x1="527" x2="773" y1="418" y2="418"/><ellipse cx="537" cy="429" fill="#84BE84" rx="3" ry="3" style="stroke:#038048;stroke-width:1.0;"/><text fill="#000000" font-family="sans-serif" font-size="11" lengthAdjust="spacing" textLength="79" x="546" y="432.225">log(params: {</text><text fill="#000000" font-family="sans-serif" font-size="11" lengthAdjust="spacing" textLength="111" x="562" y="445.0478">type: LogLevelType</text><text fill="#000000" font-family="sans-serif" font-size="11" lengthAdjust="spacing" textLength="206" x="562" y="457.8707">messageObject: StringOrObjectType</text><text fill="#000000" font-family="sans-serif" font-size="11" lengthAdjust="spacing" textLength="154" x="562" y="470.6936">meta?: StringOrObjectType</text><text fill="#000000" font-family="sans-serif" font-size="11" lengthAdjust="spacing" textLength="90" x="562" y="483.5165">datetime?: Date</text><text fill="#000000" font-family="sans-serif" font-size="11" lengthAdjust="spacing" textLength="43" x="554" y="496.3393">}): void</text><!--MD5=[8410455bbfaf2160d6c095e2b0262a86]
class simple_console_log_8617eebb--><rect codeLine="44" fill="#FEFECE" filter="url(#f1ap8ffo1q5yf9)" height="137.7601" id="simple_console_log_8617eebb" style="stroke:#A80036;stroke-width:1.5;" width="417" x="55.5" y="371.5"/><ellipse cx="205.25" cy="387.5" fill="#ADD1B2" rx="11" ry="11" style="stroke:#A80036;stroke-width:1.0;"/><path d="M207.7344,393.375 Q207.1563,393.6875 206.5156,393.8438 Q205.875,394 205.1719,394 Q202.6563,394 201.3281,392.3281 Q200.0156,390.6563 200.0156,387.5 Q200.0156,384.3438 201.3281,382.6719 Q202.6563,381 205.1719,381 Q205.875,381 206.5156,381.1563 Q207.1719,381.3125 207.7344,381.625 L207.7344,384.4219 Q207.0938,383.8438 206.5,383.5781 Q205.9063,383.3125 205.2813,383.3125 Q203.9375,383.3125 203.25,384.375 Q202.5625,385.4219 202.5625,387.5 Q202.5625,389.5781 203.25,390.6406 Q203.9375,391.6875 205.2813,391.6875 Q205.9063,391.6875 206.5,391.4219 Q207.0938,391.1563 207.7344,390.5781 L207.7344,393.375 Z " fill="#000000"/><text fill="#000000" font-family="sans-serif" font-size="12" lengthAdjust="spacing" textLength="109" x="225.75" y="391.6543">SimpleConsoleLog</text><line style="stroke:#A80036;stroke-width:1.5;" x1="56.5" x2="471.5" y1="403.5" y2="403.5"/><line style="stroke:#A80036;stroke-width:1.5;" x1="56.5" x2="471.5" y1="411.5" y2="411.5"/><ellipse cx="66.5" cy="422.5" fill="#84BE84" rx="3" ry="3" style="stroke:#038048;stroke-width:1.0;"/><text fill="#000000" font-family="sans-serif" font-size="11" lengthAdjust="spacing" textLength="391" x="75.5" y="425.725">LogTypeToFunction(type: LogLevelType): 'log' | 'info' | 'warn' | 'error'</text><ellipse cx="66.5" cy="435.3229" fill="#84BE84" rx="3" ry="3" style="stroke:#038048;stroke-width:1.0;"/><text fill="#000000" font-family="sans-serif" font-size="11" lengthAdjust="spacing" textLength="79" x="75.5" y="438.5478">log(params: {</text><text fill="#000000" font-family="sans-serif" font-size="11" lengthAdjust="spacing" textLength="111" x="91.5" y="451.3707">type: LogLevelType</text><text fill="#000000" font-family="sans-serif" font-size="11" lengthAdjust="spacing" textLength="206" x="91.5" y="464.1936">messageObject: StringOrObjectType</text><text fill="#000000" font-family="sans-serif" font-size="11" lengthAdjust="spacing" textLength="154" x="91.5" y="477.0165">meta?: StringOrObjectType</text><text fill="#000000" font-family="sans-serif" font-size="11" lengthAdjust="spacing" textLength="90" x="91.5" y="489.8393">datetime?: Date</text><text fill="#000000" font-family="sans-serif" font-size="11" lengthAdjust="spacing" textLength="43" x="83.5" y="502.6622">}): void</text><!--MD5=[80a21b125a5f3e40b08c134f17c7b351]
reverse link log_level_type_94add8b to new_relic_json_console_log_cea23840--><path codeLine="50" d="M824.56,200.2 C788.12,250.15 733.39,325.18 694.95,377.88 " fill="none" id="log_level_type_94add8b-backto-new_relic_json_console_log_cea23840" style="stroke:#A80036;stroke-width:1.0;"/><polygon fill="#A80036" points="827.59,196.05,819.0481,200.9527,824.6381,200.0856,825.5052,205.6757,827.59,196.05" style="stroke:#A80036;stroke-width:1.0;"/><!--MD5=[272ff6b88a142e3a87d76b202d0172d6]
reverse link string_or_object_type_765b9703 to new_relic_json_console_log_cea23840--><path codeLine="51" d="M1025.14,172.88 C1000.71,188.22 968.21,207.54 938,222 C869.49,254.79 839.65,237.65 778,282 C742.39,307.62 711.14,345.57 688.43,377.8 " fill="none" id="string_or_object_type_765b9703-backto-new_relic_json_console_log_cea23840" style="stroke:#A80036;stroke-width:1.0;"/><polygon fill="#A80036" points="1029.6,170.07,1019.8548,171.4952,1025.3729,172.7405,1024.1276,178.2586,1029.6,170.07" style="stroke:#A80036;stroke-width:1.0;"/><!--MD5=[70c1a30d8114e36096a6f5b2168ecfb1]
reverse link console_log_strategy_7d0f5d8e to new_relic_json_console_log_cea23840--><path codeLine="52" d="M650,229.16 C650,276.25 650,334.51 650,377.76 " fill="none" id="console_log_strategy_7d0f5d8e-backto-new_relic_json_console_log_cea23840" style="stroke:#A80036;stroke-width:1.0;stroke-dasharray:7.0,7.0;"/><polygon fill="none" points="643,229.07,650,209.07,657,229.07,643,229.07" style="stroke:#A80036;stroke-width:1.0;"/><!--MD5=[c18eaae42ca13ef812223f02f084c148]
reverse link log_level_type_94add8b to simple_console_log_8617eebb--><path codeLine="53" d="M819.56,199.99 C810.55,208.38 800.55,216.2 790,222 C678.11,283.56 627.07,233.35 509,282 C453.83,304.73 397.47,339.97 352.73,371.36 " fill="none" id="log_level_type_94add8b-backto-simple_console_log_8617eebb" style="stroke:#A80036;stroke-width:1.0;"/><polygon fill="#A80036" points="823.37,196.36,814.0945,199.6713,819.7497,199.8086,819.6123,205.4638,823.37,196.36" style="stroke:#A80036;stroke-width:1.0;"/><!--MD5=[8e62ee4a2259da5b929ccb8bc9eb294a]
reverse link string_or_object_type_765b9703 to simple_console_log_8617eebb--><path codeLine="54" d="M1029.48,173.01 C1005.14,189.67 971.11,210.42 938,222 C756.27,285.56 689.51,215.05 509,282 C451.99,303.14 394.48,339.18 349.52,371.44 " fill="none" id="string_or_object_type_765b9703-backto-simple_console_log_8617eebb" style="stroke:#A80036;stroke-width:1.0;"/><polygon fill="#A80036" points="1033.6,170.16,1023.9218,171.9854,1029.4865,173.0023,1028.4695,178.567,1033.6,170.16" style="stroke:#A80036;stroke-width:1.0;"/><!--MD5=[ae62f257feb9056b7a86635bf9b8182f]
reverse link simple_console_log_8617eebb to simple_console_log_8617eebb--><path codeLine="55" d="M477.53,397.4 C495.97,406.55 507.5,420.91 507.5,440.5 C507.5,461.75 493.94,476.85 472.69,485.81 " fill="none" id="simple_console_log_8617eebb-backto-simple_console_log_8617eebb" style="stroke:#A80036;stroke-width:1.0;"/><polygon fill="#A80036" points="472.69,395.19,479.2194,402.5634,477.2394,397.2644,482.5384,395.2844,472.69,395.19" style="stroke:#A80036;stroke-width:1.0;"/><!--MD5=[a44d72b8713ba502e9a35eb3639834b1]
reverse link console_log_strategy_7d0f5d8e to simple_console_log_8617eebb--><path codeLine="56" d="M552.3,221.41 C491.36,267.51 413.49,326.41 354.05,371.38 " fill="none" id="console_log_strategy_7d0f5d8e-backto-simple_console_log_8617eebb" style="stroke:#A80036;stroke-width:1.0;stroke-dasharray:7.0,7.0;"/><polygon fill="none" points="548.44,215.55,568.61,209.07,556.88,226.72,548.44,215.55" style="stroke:#A80036;stroke-width:1.0;"/><!--MD5=[deeccd4ff4e3cc417d20fa933c3c4ac9]
reverse link console_log_strategy_7d0f5d8e to console_logger_d9ae554f--><path codeLine="57" d="M728.02,212.59 C762.95,241.74 805.42,277.16 846.31,311.28 " fill="none" id="console_log_strategy_7d0f5d8e-backto-console_logger_d9ae554f" style="stroke:#A80036;stroke-width:1.0;"/><polygon fill="#A80036" points="723.8,209.07,728.1565,217.903,727.6423,212.2695,733.2757,211.7553,723.8,209.07" style="stroke:#A80036;stroke-width:1.0;"/><!--MD5=[adb077c4f375ca8fbe415ba266e2753a]
reverse link log_level_type_94add8b to console_logger_d9ae554f--><path codeLine="58" d="M887.92,200.62 C898.83,223.86 912.25,252.46 925.97,281.71 " fill="none" id="log_level_type_94add8b-backto-console_logger_d9ae554f" style="stroke:#A80036;stroke-width:1.0;"/><polygon fill="#A80036" points="885.78,196.05,886.0004,205.8964,887.9124,200.5725,893.2364,202.4845,885.78,196.05" style="stroke:#A80036;stroke-width:1.0;"/><!--MD5=[905ecb958be1a78c7c8095d78ebe7e31]
reverse link string_or_object_type_765b9703 to console_logger_d9ae554f--><path codeLine="59" d="M1057.9,175.31 C1052.32,200.81 1043.56,240.74 1034.54,281.92 " fill="none" id="string_or_object_type_765b9703-backto-console_logger_d9ae554f" style="stroke:#A80036;stroke-width:1.0;"/><polygon fill="#A80036" points="1058.98,170.41,1053.145,178.3443,1057.909,175.2939,1060.9593,180.0579,1058.98,170.41" style="stroke:#A80036;stroke-width:1.0;"/><!--MD5=[3325e8552570e3c3de04523371ca4c63]
reverse link console_logger_d9ae554f to console_logger_d9ae554f--><path codeLine="60" d="M1158.58,393.67 C1176.73,402.39 1188.5,418 1188.5,440.5 C1188.5,464.9 1174.65,481.21 1153.84,489.4 " fill="none" id="console_logger_d9ae554f-backto-console_logger_d9ae554f" style="stroke:#A80036;stroke-width:1.0;"/><polygon fill="#A80036" points="1153.84,391.6,1160.4905,398.8644,1158.4231,393.5988,1163.6886,391.5315,1153.84,391.6" style="stroke:#A80036;stroke-width:1.0;"/><!--MD5=[a73370ad3e2548567e4dbf2a4e32fb26]
reverse link logger_strategy_765b9703 to console_logger_d9ae554f--><path codeLine="61" d="M1241.79,235.45 C1214.01,258.89 1183.41,284.72 1153.58,309.89 " fill="none" id="logger_strategy_765b9703-backto-console_logger_d9ae554f" style="stroke:#A80036;stroke-width:1.0;stroke-dasharray:7.0,7.0;"/><polygon fill="none" points="1237.55,229.87,1257.35,222.32,1246.58,240.57,1237.55,229.87" style="stroke:#A80036;stroke-width:1.0;"/><!--MD5=[2996c59834693d053f440b60645fcf34]
reverse link string_or_object_type_765b9703 to no_logger_efb5639--><path codeLine="62" d="M1089.08,174.02 C1114.48,200.99 1154.8,244.1 1189,282 C1213.23,308.85 1239.48,338.63 1262.51,364.99 " fill="none" id="string_or_object_type_765b9703-backto-no_logger_efb5639" style="stroke:#A80036;stroke-width:1.0;"/><polygon fill="#A80036" points="1085.44,170.16,1088.6955,179.4553,1088.8668,173.801,1094.5211,173.9723,1085.44,170.16" style="stroke:#A80036;stroke-width:1.0;"/><!--MD5=[ee4e3616037fe6961fbaab1a85b8d9cb]
reverse link logger_strategy_765b9703 to no_logger_efb5639--><path codeLine="63" d="M1339.82,242.48 C1337.24,282.18 1334.28,327.64 1331.86,364.88 " fill="none" id="logger_strategy_765b9703-backto-no_logger_efb5639" style="stroke:#A80036;stroke-width:1.0;stroke-dasharray:7.0,7.0;"/><polygon fill="none" points="1332.85,241.82,1341.13,222.32,1346.82,242.73,1332.85,241.82" style="stroke:#A80036;stroke-width:1.0;"/><!--MD5=[471e597e1794e90ee8bebfe565637ddd]
@startuml
    folder "src" as src_b874d07 {
      class "ConsoleLogger" as console_logger_d9ae554f {
        + LogLevelToInt(logLevel: LogLevelType): number
        # _consoleLogStrategy: ConsoleLogStrategy
        # _logLevel: LogLevelType
        # _logMessage(type: LogLevelType,\n messageObject: StringOrObjectType,\n meta?: StringOrObjectType): void
        # _shouldLog(currentLevel: LogLevelType): boolean
        constructor(params: {\n logLevel?: LogLevelType;\n consoleLogStrategy?: ConsoleLogStrategy \n} = {\n\n})
        + debug(messageObject: StringOrObjectType,\n meta?: StringOrObjectType): void
        + error(messageObject: StringOrObjectType,\n meta?: StringOrObjectType): void
        + info(messageObject: StringOrObjectType,\n meta?: StringOrObjectType): void
        + warn(messageObject: StringOrObjectType,\n meta?: StringOrObjectType): void
      }
      enum "LogLevelType" as log_level_type_94add8b {
        DEBUG = 'debug'
        ERROR = 'error'
        INFO = 'info'
        WARN = 'warn'
      }
      card string_or_object_type_765b9703 [
        StringOrObjectType
        - - -
        string | { [key: string]: any }
      ]
      interface "LoggerStrategy" as logger_strategy_765b9703 {
        + debug(messageObject: StringOrObjectType,\n meta?: StringOrObjectType): void
        + info(messageObject: StringOrObjectType,\n meta?: StringOrObjectType): void
        + warn(messageObject: StringOrObjectType,\n meta?: StringOrObjectType): void
        + error(messageObject: StringOrObjectType,\n meta?: StringOrObjectType): void
      }
      class "NoLogger" as no_logger_efb5639 {
        + debug(_: StringOrObjectType,\n __?: StringOrObjectType): void
        + error(_: StringOrObjectType,\n __?: StringOrObjectType): void
        + info(_: StringOrObjectType,\n __?: StringOrObjectType): void
        + warn(_: StringOrObjectType,\n __?: StringOrObjectType): void
      }
      folder "console-log-strategy" as console_log_strategy_5838fe20 {
        interface "ConsoleLogStrategy" as console_log_strategy_7d0f5d8e {
          + log(params: {\n type: LogLevelType;\n messageObject: StringOrObjectType;\n meta?: StringOrObjectType;\n datetime?: Date \n}): void
        }
        class "NewRelicJsonConsoleLog" as new_relic_json_console_log_cea23840 {
          + log(params: {\n    type: LogLevelType\n    messageObject: StringOrObjectType\n    meta?: StringOrObjectType\n    datetime?: Date\n  }): void
        }
        class "SimpleConsoleLog" as simple_console_log_8617eebb {
          + LogTypeToFunction(type: LogLevelType): 'log' | 'info' | 'warn' | 'error'
          + log(params: {\n    type: LogLevelType\n    messageObject: StringOrObjectType\n    meta?: StringOrObjectType\n    datetime?: Date\n  }): void
        }
      }
    }
  new_relic_json_console_log_cea23840 -up-> log_level_type_94add8b
  new_relic_json_console_log_cea23840 -up-> string_or_object_type_765b9703
  new_relic_json_console_log_cea23840 .up.|> console_log_strategy_7d0f5d8e
  simple_console_log_8617eebb -up-> log_level_type_94add8b
  simple_console_log_8617eebb -up-> string_or_object_type_765b9703
  simple_console_log_8617eebb -up-> simple_console_log_8617eebb
  simple_console_log_8617eebb .up.|> console_log_strategy_7d0f5d8e
  console_logger_d9ae554f -up-> console_log_strategy_7d0f5d8e
  console_logger_d9ae554f -up-> log_level_type_94add8b
  console_logger_d9ae554f -up-> string_or_object_type_765b9703
  console_logger_d9ae554f -up-> console_logger_d9ae554f
  console_logger_d9ae554f .up.|> logger_strategy_765b9703
  no_logger_efb5639 -up-> string_or_object_type_765b9703
  no_logger_efb5639 .up.|> logger_strategy_765b9703
@enduml

PlantUML version 1.2021.11(Sat Oct 02 15:26:11 CEST 2021)
(GPL source distribution)
Java Runtime: OpenJDK Runtime Environment
JVM: OpenJDK 64-Bit Server VM
Default Encoding: UTF-8
Language: en
Country: US
--></g></svg>