<?xml version="1.0" encoding="us-ascii" standalone="no"?><svg xmlns="http://www.w3.org/2000/svg" xmlns:xlink="http://www.w3.org/1999/xlink" contentStyleType="text/css" height="748px" preserveAspectRatio="none" style="width:4050px;height:748px;background:#FFFFFF;" version="1.1" viewBox="0 0 4050 748" width="4050px" zoomAndPan="magnify"><defs/><g><!--cluster src_b874d07--><g id="cluster_src_b874d07"><path d="M316.5,6 L340.5,6 A3.75,3.75 0 0 1 343,8.5 L350,28.2969 L4040.5,28.2969 A2.5,2.5 0 0 1 4043,30.7969 L4043,738.5 A2.5,2.5 0 0 1 4040.5,741 L316.5,741 A2.5,2.5 0 0 1 314,738.5 L314,8.5 A2.5,2.5 0 0 1 316.5,6 " fill="none" style="stroke:#000000;stroke-width:1.5;"/><line style="stroke:#000000;stroke-width:1.5;" x1="314" x2="350" y1="28.2969" y2="28.2969"/><text fill="#000000" font-family="sans-serif" font-size="14" font-weight="bold" lengthAdjust="spacing" textLength="23" x="318" y="20.9951">src</text></g><!--cluster logger_strategy_47299faa--><g id="cluster_logger_strategy_47299faa"><path d="M737.5,111 L863.5,111 A3.75,3.75 0 0 1 866,113.5 L873,133.2969 L4016.5,133.2969 A2.5,2.5 0 0 1 4019,135.7969 L4019,714.5 A2.5,2.5 0 0 1 4016.5,717 L737.5,717 A2.5,2.5 0 0 1 735,714.5 L735,113.5 A2.5,2.5 0 0 1 737.5,111 " fill="none" style="stroke:#000000;stroke-width:1.5;"/><line style="stroke:#000000;stroke-width:1.5;" x1="735" x2="873" y1="133.2969" y2="133.2969"/><text fill="#000000" font-family="sans-serif" font-size="14" font-weight="bold" lengthAdjust="spacing" textLength="125" x="739" y="125.9951">logger-strategy</text></g><!--cluster console_ce28ad92--><g id="cluster_console_ce28ad92"><path d="M1581.5,169 L1643.5,169 A3.75,3.75 0 0 1 1646,171.5 L1653,191.2969 L3495.5,191.2969 A2.5,2.5 0 0 1 3498,193.7969 L3498,690.5 A2.5,2.5 0 0 1 3495.5,693 L1581.5,693 A2.5,2.5 0 0 1 1579,690.5 L1579,171.5 A2.5,2.5 0 0 1 1581.5,169 " fill="none" style="stroke:#000000;stroke-width:1.5;"/><line style="stroke:#000000;stroke-width:1.5;" x1="1579" x2="1653" y1="191.2969" y2="191.2969"/><text fill="#000000" font-family="sans-serif" font-size="14" font-weight="bold" lengthAdjust="spacing" textLength="61" x="1583" y="183.9951">console</text></g><!--cluster log_strategy_d0d70d4f--><g id="cluster_log_strategy_d0d70d4f"><path d="M1605.5,406.5 L1704.5,406.5 A3.75,3.75 0 0 1 1707,409 L1714,428.7969 L2958.5,428.7969 A2.5,2.5 0 0 1 2961,431.2969 L2961,650 A2.5,2.5 0 0 1 2958.5,652.5 L1605.5,652.5 A2.5,2.5 0 0 1 1603,650 L1603,409 A2.5,2.5 0 0 1 1605.5,406.5 " fill="none" style="stroke:#000000;stroke-width:1.5;"/><line style="stroke:#000000;stroke-width:1.5;" x1="1603" x2="1714" y1="428.7969" y2="428.7969"/><text fill="#000000" font-family="sans-serif" font-size="14" font-weight="bold" lengthAdjust="spacing" textLength="98" x="1607" y="421.4951">log-strategy</text></g><!--cluster beecode_msh_util_lib_95bf45f2--><g id="cluster_beecode_msh_util_lib_95bf45f2"><path d="M8.5,186 L187.5,186 A3.75,3.75 0 0 1 190,188.5 L197,208.2969 L287.5,208.2969 A2.5,2.5 0 0 1 290,210.7969 L290,279.5 A2.5,2.5 0 0 1 287.5,282 L8.5,282 A2.5,2.5 0 0 1 6,279.5 L6,188.5 A2.5,2.5 0 0 1 8.5,186 " fill="none" style="stroke:#000000;stroke-width:1.5;"/><line style="stroke:#000000;stroke-width:1.5;" x1="6" x2="197" y1="208.2969" y2="208.2969"/><text fill="#000000" font-family="sans-serif" font-size="14" font-weight="bold" lengthAdjust="spacing" textLength="178" x="10" y="200.9951">@beecode/msh-util/lib</text></g><!--class log_level_mapper_d3d8c568--><g id="elem_log_level_mapper_d3d8c568"><rect codeLine="2" fill="#F1F1F1" height="113.1875" id="log_level_mapper_d3d8c568" rx="2.5" ry="2.5" style="stroke:#181818;stroke-width:0.5;" width="150" x="330" y="187"/><ellipse cx="345" cy="203" fill="#EB937F" rx="11" ry="11" style="stroke:#181818;stroke-width:1.0;"/><path d="M349.1094,209 L341.3906,209 L341.3906,196.6094 L349.1094,196.6094 L349.1094,198.7656 L343.8438,198.7656 L343.8438,201.4375 L348.6094,201.4375 L348.6094,203.5938 L343.8438,203.5938 L343.8438,206.8438 L349.1094,206.8438 L349.1094,209 Z " fill="#000000"/><text fill="#000000" font-family="sans-serif" font-size="14" lengthAdjust="spacing" textLength="118" x="359" y="207.8467">LogLevelMapper</text><line style="stroke:#181818;stroke-width:0.5;" x1="331" x2="479" y1="219" y2="219"/><text fill="#000000" font-family="sans-serif" font-size="14" lengthAdjust="spacing" textLength="124" x="336" y="235.9951">DEBUG = 'debug'</text><text fill="#000000" font-family="sans-serif" font-size="14" lengthAdjust="spacing" textLength="114" x="336" y="252.292">ERROR = 'error'</text><text fill="#000000" font-family="sans-serif" font-size="14" lengthAdjust="spacing" textLength="88" x="336" y="268.5889">INFO = 'info'</text><text fill="#000000" font-family="sans-serif" font-size="14" lengthAdjust="spacing" textLength="107" x="336" y="284.8857">WARN = 'warn'</text><line style="stroke:#181818;stroke-width:0.5;" x1="331" x2="479" y1="292.1875" y2="292.1875"/></g><g id="elem_logger_strategy_params_765b9703"><rect fill="#F1F1F1" height="44.5938" style="stroke:#181818;stroke-width:0.5;" width="177" x="641.5" y="41"/><text fill="#000000" font-family="sans-serif" font-size="14" lengthAdjust="spacing" textLength="163" x="648.5" y="55.9951">LoggerStrategyParams</text><line style="stroke:#181818;stroke-width:0.5;" x1="642.5" x2="817.5" y1="61.2969" y2="61.2969"/><text fill="#000000" font-family="sans-serif" font-size="14" lengthAdjust="spacing" textLength="151" x="647.5" y="78.292">src/logger-strategy.ts</text></g><g id="elem_object_type_765b9703"><rect fill="#F1F1F1" height="44.5938" style="stroke:#181818;stroke-width:0.5;" width="163" x="515.5" y="221"/><text fill="#000000" font-family="sans-serif" font-size="14" lengthAdjust="spacing" textLength="81" x="556.5" y="235.9951">ObjectType</text><line style="stroke:#181818;stroke-width:0.5;" x1="516.5" x2="677.5" y1="241.2969" y2="241.2969"/><text fill="#000000" font-family="sans-serif" font-size="14" lengthAdjust="spacing" textLength="151" x="521.5" y="258.292">src/logger-strategy.ts</text></g><g id="elem_logger_strategy_765b9703"><rect fill="#F1F1F1" height="44.5938" style="stroke:#181818;stroke-width:0.5;" width="163" x="2103.5" y="41"/><text fill="#000000" font-family="sans-serif" font-size="14" lengthAdjust="spacing" textLength="110" x="2130" y="55.9951">LoggerStrategy</text><line style="stroke:#181818;stroke-width:0.5;" x1="2104.5" x2="2265.5" y1="61.2969" y2="61.2969"/><text fill="#000000" font-family="sans-serif" font-size="14" lengthAdjust="spacing" textLength="151" x="2109.5" y="78.292">src/logger-strategy.ts</text></g><g id="elem_string_or_object_type_765b9703"><rect fill="#F1F1F1" height="44.5938" style="stroke:#181818;stroke-width:0.5;" width="163" x="868.5" y="41"/><text fill="#000000" font-family="sans-serif" font-size="14" lengthAdjust="spacing" textLength="140" x="880" y="55.9951">StringOrObjectType</text><line style="stroke:#181818;stroke-width:0.5;" x1="869.5" x2="1030.5" y1="61.2969" y2="61.2969"/><text fill="#000000" font-family="sans-serif" font-size="14" lengthAdjust="spacing" textLength="151" x="874.5" y="78.292">src/logger-strategy.ts</text></g><!--entity object_type_6ce23852--><g id="elem_object_type_6ce23852"><rect fill="#F1F1F1" height="46.5938" rx="2.5" ry="2.5" style="stroke:#181818;stroke-width:0.5;" width="165" x="1202.5" y="220"/><text fill="#000000" font-family="sans-serif" font-size="14" lengthAdjust="spacing" textLength="81" x="1212.5" y="235.9951">ObjectType</text><line style="stroke:#181818;stroke-width:1.0;" x1="1203.5" x2="1366.5" y1="239.2969" y2="239.2969"/><text fill="#000000" font-family="sans-serif" font-size="14" lengthAdjust="spacing" textLength="145" x="1212.5" y="256.292">{ [key: string]: any }</text></g><!--entity string_or_object_type_6ce23852--><g id="elem_string_or_object_type_6ce23852"><rect fill="#F1F1F1" height="46.5938" rx="2.5" ry="2.5" style="stroke:#181818;stroke-width:0.5;" width="160" x="1403" y="220"/><text fill="#000000" font-family="sans-serif" font-size="14" lengthAdjust="spacing" textLength="140" x="1413" y="235.9951">StringOrObjectType</text><line style="stroke:#181818;stroke-width:1.0;" x1="1404" x2="1562" y1="239.2969" y2="239.2969"/><text fill="#000000" font-family="sans-serif" font-size="14" lengthAdjust="spacing" textLength="134" x="1413" y="256.292">string | ObjectType</text></g><!--entity logger_strategy_params_6ce23852--><g id="elem_logger_strategy_params_6ce23852"><rect fill="#F1F1F1" height="111.7813" rx="2.5" ry="2.5" style="stroke:#181818;stroke-width:0.5;" width="222" x="1257" y="483"/><text fill="#000000" font-family="sans-serif" font-size="14" lengthAdjust="spacing" textLength="163" x="1267" y="498.9951">LoggerStrategyParams</text><line style="stroke:#181818;stroke-width:1.0;" x1="1258" x2="1478" y1="502.2969" y2="502.2969"/><text fill="#000000" font-family="sans-serif" font-size="14" lengthAdjust="spacing" textLength="9" x="1267" y="519.292">{</text><text fill="#000000" font-family="sans-serif" font-size="14" lengthAdjust="spacing" textLength="194" x="1275" y="535.5889">logLevel?: LogLevelMapper</text><text fill="#000000" font-family="sans-serif" font-size="14" lengthAdjust="spacing" textLength="160" x="1275" y="551.8857">messagePrefix?: string</text><text fill="#000000" font-family="sans-serif" font-size="14" lengthAdjust="spacing" textLength="134" x="1275" y="568.1826">meta?: ObjectType</text><text fill="#000000" font-family="sans-serif" font-size="14" lengthAdjust="spacing" textLength="9" x="1267" y="584.4795">}</text></g><!--class logger_strategy_6ce23852--><g id="elem_logger_strategy_6ce23852"><rect codeLine="40" fill="#F1F1F1" height="129.4844" id="logger_strategy_6ce23852" rx="2.5" ry="2.5" style="stroke:#181818;stroke-width:0.5;" width="486" x="3517" y="474.5"/><ellipse cx="3700.75" cy="490.5" fill="#B4A7E5" rx="11" ry="11" style="stroke:#181818;stroke-width:1.0;"/><path d="M3696.6719,486.2656 L3696.6719,484.1094 L3704.0625,484.1094 L3704.0625,486.2656 L3701.5938,486.2656 L3701.5938,494.3438 L3704.0625,494.3438 L3704.0625,496.5 L3696.6719,496.5 L3696.6719,494.3438 L3699.1406,494.3438 L3699.1406,486.2656 L3696.6719,486.2656 Z " fill="#000000"/><text fill="#000000" font-family="sans-serif" font-size="14" font-style="italic" lengthAdjust="spacing" textLength="110" x="3721.25" y="495.3467">LoggerStrategy</text><line style="stroke:#181818;stroke-width:0.5;" x1="3518" x2="4002" y1="506.5" y2="506.5"/><line style="stroke:#181818;stroke-width:0.5;" x1="3518" x2="4002" y1="514.5" y2="514.5"/><ellipse cx="3528" cy="528.1484" fill="#84BE84" rx="3" ry="3" style="stroke:#038048;stroke-width:1.0;"/><text fill="#000000" font-family="sans-serif" font-size="14" lengthAdjust="spacing" textLength="382" x="3537" y="531.4951">debug(...messageObjects: StringOrObjectType[]): void</text><ellipse cx="3528" cy="544.4453" fill="#84BE84" rx="3" ry="3" style="stroke:#038048;stroke-width:1.0;"/><text fill="#000000" font-family="sans-serif" font-size="14" lengthAdjust="spacing" textLength="364" x="3537" y="547.792">info(...messageObjects: StringOrObjectType[]): void</text><ellipse cx="3528" cy="560.7422" fill="#84BE84" rx="3" ry="3" style="stroke:#038048;stroke-width:1.0;"/><text fill="#000000" font-family="sans-serif" font-size="14" lengthAdjust="spacing" textLength="372" x="3537" y="564.0889">warn(...messageObjects: StringOrObjectType[]): void</text><ellipse cx="3528" cy="577.0391" fill="#84BE84" rx="3" ry="3" style="stroke:#038048;stroke-width:1.0;"/><text fill="#000000" font-family="sans-serif" font-size="14" lengthAdjust="spacing" textLength="373" x="3537" y="580.3857">error(...messageObjects: StringOrObjectType[]): void</text><ellipse cx="3528" cy="593.3359" fill="#84BE84" rx="3" ry="3" style="stroke:#038048;stroke-width:1.0;"/><text fill="#000000" font-family="sans-serif" font-size="14" lengthAdjust="spacing" textLength="460" x="3537" y="596.6826">clone(overrideParams?: LoggerStrategyParams): LoggerStrategy</text></g><!--class logger_strategy_void_9618f938--><g id="elem_logger_strategy_void_9618f938"><rect codeLine="47" fill="#F1F1F1" height="194.6719" id="logger_strategy_void_9618f938" rx="2.5" ry="2.5" style="stroke:#181818;stroke-width:0.5;" width="398" x="751" y="146"/><ellipse cx="874.75" cy="162" fill="#ADD1B2" rx="11" ry="11" style="stroke:#181818;stroke-width:1.0;"/><path d="M877.7188,167.6406 Q877.1406,167.9375 876.5,168.0781 Q875.8594,168.2344 875.1563,168.2344 Q872.6563,168.2344 871.3281,166.5938 Q870.0156,164.9375 870.0156,161.8125 Q870.0156,158.6875 871.3281,157.0313 Q872.6563,155.375 875.1563,155.375 Q875.8594,155.375 876.5,155.5313 Q877.1563,155.6875 877.7188,155.9844 L877.7188,158.7031 Q877.0938,158.125 876.5,157.8594 Q875.9063,157.5781 875.2813,157.5781 Q873.9375,157.5781 873.25,158.6563 Q872.5625,159.7188 872.5625,161.8125 Q872.5625,163.9063 873.25,164.9844 Q873.9375,166.0469 875.2813,166.0469 Q875.9063,166.0469 876.5,165.7813 Q877.0938,165.5 877.7188,164.9219 L877.7188,167.6406 Z " fill="#000000"/><text fill="#000000" font-family="sans-serif" font-size="14" lengthAdjust="spacing" textLength="142" x="895.25" y="166.8467">LoggerStrategyVoid</text><line style="stroke:#181818;stroke-width:0.5;" x1="752" x2="1148" y1="178" y2="178"/><line style="stroke:#181818;stroke-width:0.5;" x1="752" x2="1148" y1="186" y2="186"/><text fill="#000000" font-family="sans-serif" font-size="14" lengthAdjust="spacing" textLength="386" x="757" y="202.9951">clone(_?: LoggerStrategyParams): LoggerStrategyVoid</text><text fill="#000000" font-family="sans-serif" font-size="14" lengthAdjust="spacing" textLength="210" x="757" y="219.292">debug(_: StringOrObjectType,</text><text fill="#000000" font-family="sans-serif" font-size="14" lengthAdjust="spacing" textLength="214" x="777" y="235.5889">__?: StringOrObjectType): void</text><text fill="#000000" font-family="sans-serif" font-size="14" lengthAdjust="spacing" textLength="201" x="757" y="251.8857">error(_: StringOrObjectType,</text><text fill="#000000" font-family="sans-serif" font-size="14" lengthAdjust="spacing" textLength="214" x="777" y="268.1826">__?: StringOrObjectType): void</text><text fill="#000000" font-family="sans-serif" font-size="14" lengthAdjust="spacing" textLength="192" x="757" y="284.4795">info(_: StringOrObjectType,</text><text fill="#000000" font-family="sans-serif" font-size="14" lengthAdjust="spacing" textLength="214" x="777" y="300.7764">__?: StringOrObjectType): void</text><text fill="#000000" font-family="sans-serif" font-size="14" lengthAdjust="spacing" textLength="200" x="757" y="317.0732">warn(_: StringOrObjectType,</text><text fill="#000000" font-family="sans-serif" font-size="14" lengthAdjust="spacing" textLength="214" x="777" y="333.3701">__?: StringOrObjectType): void</text></g><!--entity console_logger_params_e43a732a--><g id="elem_console_logger_params_e43a732a"><rect fill="#F1F1F1" height="79.1875" rx="2.5" ry="2.5" style="stroke:#181818;stroke-width:0.5;" width="328" x="2923" y="204"/><text fill="#000000" font-family="sans-serif" font-size="14" lengthAdjust="spacing" textLength="160" x="2933" y="219.9951">ConsoleLoggerParams</text><line style="stroke:#181818;stroke-width:1.0;" x1="2924" x2="3250" y1="223.2969" y2="223.2969"/><text fill="#000000" font-family="sans-serif" font-size="14" lengthAdjust="spacing" textLength="9" x="2933" y="240.292">{</text><text fill="#000000" font-family="sans-serif" font-size="14" lengthAdjust="spacing" textLength="300" x="2941" y="256.5889">consoleLogStrategy?: ConsoleLogStrategy</text><text fill="#000000" font-family="sans-serif" font-size="14" lengthAdjust="spacing" textLength="191" x="2933" y="272.8857">} &amp; LoggerStrategyParams</text></g><!--class logger_strategy_console_e43a732a--><g id="elem_logger_strategy_console_e43a732a"><rect codeLine="62" fill="#F1F1F1" height="276.1563" id="logger_strategy_console_e43a732a" rx="2.5" ry="2.5" style="stroke:#181818;stroke-width:0.5;" width="484" x="2980" y="401"/><ellipse cx="3134.25" cy="417" fill="#ADD1B2" rx="11" ry="11" style="stroke:#181818;stroke-width:1.0;"/><path d="M3137.2188,422.6406 Q3136.6406,422.9375 3136,423.0781 Q3135.3594,423.2344 3134.6563,423.2344 Q3132.1563,423.2344 3130.8281,421.5938 Q3129.5156,419.9375 3129.5156,416.8125 Q3129.5156,413.6875 3130.8281,412.0313 Q3132.1563,410.375 3134.6563,410.375 Q3135.3594,410.375 3136,410.5313 Q3136.6563,410.6875 3137.2188,410.9844 L3137.2188,413.7031 Q3136.5938,413.125 3136,412.8594 Q3135.4063,412.5781 3134.7813,412.5781 Q3133.4375,412.5781 3132.75,413.6563 Q3132.0625,414.7188 3132.0625,416.8125 Q3132.0625,418.9063 3132.75,419.9844 Q3133.4375,421.0469 3134.7813,421.0469 Q3135.4063,421.0469 3136,420.7813 Q3136.5938,420.5 3137.2188,419.9219 L3137.2188,422.6406 Z " fill="#000000"/><text fill="#000000" font-family="sans-serif" font-size="14" lengthAdjust="spacing" textLength="167" x="3154.75" y="421.8467">LoggerStrategyConsole</text><line style="stroke:#181818;stroke-width:0.5;" x1="2981" x2="3463" y1="433" y2="433"/><polygon fill="none" points="2991,441.6484,2995,445.6484,2991,449.6484,2987,445.6484" style="stroke:#B38D22;stroke-width:1.0;"/><text fill="#000000" font-family="sans-serif" font-size="14" lengthAdjust="spacing" textLength="300" x="3000" y="449.9951">_consoleLogStrategy: ConsoleLogStrategy</text><polygon fill="none" points="2991,457.9453,2995,461.9453,2991,465.9453,2987,461.9453" style="stroke:#B38D22;stroke-width:1.0;"/><text fill="#000000" font-family="sans-serif" font-size="14" lengthAdjust="spacing" textLength="194" x="3000" y="466.292">_logLevel: LogLevelMapper</text><polygon fill="none" points="2991,474.2422,2995,478.2422,2991,482.2422,2987,478.2422" style="stroke:#B38D22;stroke-width:1.0;"/><text fill="#000000" font-family="sans-serif" font-size="14" lengthAdjust="spacing" textLength="160" x="3000" y="482.5889">_messagePrefix: string</text><polygon fill="none" points="2991,490.5391,2995,494.5391,2991,498.5391,2987,494.5391" style="stroke:#B38D22;stroke-width:1.0;"/><text fill="#000000" font-family="sans-serif" font-size="14" lengthAdjust="spacing" textLength="134" x="3000" y="498.8857">_meta: ObjectType</text><line style="stroke:#181818;stroke-width:0.5;" x1="2981" x2="3463" y1="506.1875" y2="506.1875"/><text fill="#000000" font-family="sans-serif" font-size="14" lengthAdjust="spacing" textLength="362" x="3000" y="523.1826">LogLevelToInt(logLevel: LogLevelMapper): number</text><polygon fill="#FFFF44" points="2991,539.2813,2995,543.2813,2991,547.2813,2987,543.2813" style="stroke:#B38D22;stroke-width:1.0;"/><text fill="#000000" font-family="sans-serif" font-size="14" lengthAdjust="spacing" textLength="258" x="3000" y="539.4795">_logMessage(type: LogLevelMapper,</text><text fill="#000000" font-family="sans-serif" font-size="14" lengthAdjust="spacing" textLength="332" x="3020" y="555.7764">...messageObjects: StringOrObjectType[]): void</text><polygon fill="#FFFF44" points="2991,563.7266,2995,567.7266,2991,571.7266,2987,567.7266" style="stroke:#B38D22;stroke-width:1.0;"/><text fill="#000000" font-family="sans-serif" font-size="14" lengthAdjust="spacing" textLength="374" x="3000" y="572.0732">_shouldLog(currentLevel: LogLevelMapper): boolean</text><text fill="#000000" font-family="sans-serif" font-size="14" lengthAdjust="spacing" textLength="458" x="3000" y="588.3701">clone(params?: LoggerStrategyParams): LoggerStrategyConsole</text><text fill="#000000" font-family="sans-serif" font-size="14" lengthAdjust="spacing" textLength="352" x="3000" y="604.667">constructor(params: ConsoleLoggerParams = {})</text><text fill="#000000" font-family="sans-serif" font-size="14" lengthAdjust="spacing" textLength="382" x="3000" y="620.9639">debug(...messageObjects: StringOrObjectType[]): void</text><text fill="#000000" font-family="sans-serif" font-size="14" lengthAdjust="spacing" textLength="373" x="3000" y="637.2607">error(...messageObjects: StringOrObjectType[]): void</text><text fill="#000000" font-family="sans-serif" font-size="14" lengthAdjust="spacing" textLength="364" x="3000" y="653.5576">info(...messageObjects: StringOrObjectType[]): void</text><text fill="#000000" font-family="sans-serif" font-size="14" lengthAdjust="spacing" textLength="372" x="3000" y="669.8545">warn(...messageObjects: StringOrObjectType[]): void</text></g><g id="elem_console_log_strategy_c30e8046"><rect fill="#F1F1F1" height="44.5938" style="stroke:#181818;stroke-width:0.5;" width="313" x="2574.5" y="221"/><text fill="#000000" font-family="sans-serif" font-size="14" lengthAdjust="spacing" textLength="143" x="2659.5" y="235.9951">ConsoleLogStrategy</text><line style="stroke:#181818;stroke-width:0.5;" x1="2575.5" x2="2886.5" y1="241.2969" y2="241.2969"/><text fill="#000000" font-family="sans-serif" font-size="14" lengthAdjust="spacing" textLength="301" x="2580.5" y="258.292">src/logger-strategy/console/log-strategy.ts</text></g><!--class console_log_strategy_c357dab7--><g id="elem_console_log_strategy_c357dab7"><rect codeLine="81" fill="#F1F1F1" height="162.0781" id="console_log_strategy_c357dab7" rx="2.5" ry="2.5" style="stroke:#181818;stroke-width:0.5;" width="378" x="2234" y="458"/><ellipse cx="2347.25" cy="474" fill="#B4A7E5" rx="11" ry="11" style="stroke:#181818;stroke-width:1.0;"/><path d="M2343.1719,469.7656 L2343.1719,467.6094 L2350.5625,467.6094 L2350.5625,469.7656 L2348.0938,469.7656 L2348.0938,477.8438 L2350.5625,477.8438 L2350.5625,480 L2343.1719,480 L2343.1719,477.8438 L2345.6406,477.8438 L2345.6406,469.7656 L2343.1719,469.7656 Z " fill="#000000"/><text fill="#000000" font-family="sans-serif" font-size="14" font-style="italic" lengthAdjust="spacing" textLength="143" x="2367.75" y="478.8467">ConsoleLogStrategy</text><line style="stroke:#181818;stroke-width:0.5;" x1="2235" x2="2611" y1="490" y2="490"/><line style="stroke:#181818;stroke-width:0.5;" x1="2235" x2="2611" y1="498" y2="498"/><ellipse cx="2245" cy="560.5391" fill="#84BE84" rx="3" ry="3" style="stroke:#038048;stroke-width:1.0;"/><text fill="#000000" font-family="sans-serif" font-size="14" lengthAdjust="spacing" textLength="99" x="2254" y="514.9951">log(params: {</text><text fill="#000000" font-family="sans-serif" font-size="14" lengthAdjust="spacing" textLength="163" x="2274" y="531.292">type: LogLevelMapper;</text><text fill="#000000" font-family="sans-serif" font-size="14" lengthAdjust="spacing" textLength="139" x="2274" y="547.5889">meta?: ObjectType;</text><text fill="#000000" font-family="sans-serif" font-size="14" lengthAdjust="spacing" textLength="119" x="2274" y="563.8857">datetime?: Date;</text><text fill="#000000" font-family="sans-serif" font-size="14" lengthAdjust="spacing" textLength="97" x="2274" y="580.1826">prefix?: string</text><text fill="#000000" font-family="sans-serif" font-size="14" lengthAdjust="spacing" textLength="13" x="2254" y="596.4795">},</text><text fill="#000000" font-family="sans-serif" font-size="14" lengthAdjust="spacing" textLength="332" x="2274" y="612.7764">...messageObjects: StringOrObjectType[]): void</text></g><!--class console_log_strategy_new_relic_json_a992bd1c--><g id="elem_console_log_strategy_new_relic_json_a992bd1c"><rect codeLine="84" fill="#F1F1F1" height="194.6719" id="console_log_strategy_new_relic_json_a992bd1c" rx="2.5" ry="2.5" style="stroke:#181818;stroke-width:0.5;" width="298" x="2647" y="441.5"/><ellipse cx="2675.05" cy="457.5" fill="#ADD1B2" rx="11" ry="11" style="stroke:#181818;stroke-width:1.0;"/><path d="M2678.0188,463.1406 Q2677.4406,463.4375 2676.8,463.5781 Q2676.1594,463.7344 2675.4563,463.7344 Q2672.9563,463.7344 2671.6281,462.0938 Q2670.3156,460.4375 2670.3156,457.3125 Q2670.3156,454.1875 2671.6281,452.5313 Q2672.9563,450.875 2675.4563,450.875 Q2676.1594,450.875 2676.8,451.0313 Q2677.4563,451.1875 2678.0188,451.4844 L2678.0188,454.2031 Q2677.3938,453.625 2676.8,453.3594 Q2676.2063,453.0781 2675.5813,453.0781 Q2674.2375,453.0781 2673.55,454.1563 Q2672.8625,455.2188 2672.8625,457.3125 Q2672.8625,459.4063 2673.55,460.4844 Q2674.2375,461.5469 2675.5813,461.5469 Q2676.2063,461.5469 2676.8,461.2813 Q2677.3938,461 2678.0188,460.4219 L2678.0188,463.1406 Z " fill="#000000"/><text fill="#000000" font-family="sans-serif" font-size="14" lengthAdjust="spacing" textLength="237" x="2691.95" y="462.3467">ConsoleLogStrategyNewRelicJson</text><line style="stroke:#181818;stroke-width:0.5;" x1="2648" x2="2944" y1="473.5" y2="473.5"/><line style="stroke:#181818;stroke-width:0.5;" x1="2648" x2="2944" y1="481.5" y2="481.5"/><polygon fill="#FFFF44" points="2658,498.2969,2662,502.2969,2658,506.2969,2654,502.2969" style="stroke:#B38D22;stroke-width:1.0;"/><text fill="#000000" font-family="sans-serif" font-size="14" lengthAdjust="spacing" textLength="195" x="2667" y="498.4951">_joinDefined(prefix?: string,</text><text fill="#000000" font-family="sans-serif" font-size="14" lengthAdjust="spacing" textLength="140" x="2687" y="514.792">msg?: string): string</text><text fill="#000000" font-family="sans-serif" font-size="14" lengthAdjust="spacing" textLength="99" x="2667" y="531.0889">log(params: {</text><text fill="#000000" font-family="sans-serif" font-size="14" lengthAdjust="spacing" textLength="163" x="2687" y="547.3857">type: LogLevelMapper;</text><text fill="#000000" font-family="sans-serif" font-size="14" lengthAdjust="spacing" textLength="139" x="2687" y="563.6826">meta?: ObjectType;</text><text fill="#000000" font-family="sans-serif" font-size="14" lengthAdjust="spacing" textLength="119" x="2687" y="579.9795">datetime?: Date;</text><text fill="#000000" font-family="sans-serif" font-size="14" lengthAdjust="spacing" textLength="97" x="2687" y="596.2764">prefix?: string</text><text fill="#000000" font-family="sans-serif" font-size="14" lengthAdjust="spacing" textLength="13" x="2667" y="612.5732">},</text><text fill="#000000" font-family="sans-serif" font-size="14" lengthAdjust="spacing" textLength="252" x="2687" y="628.8701">...msgs: StringOrObjectType[]): void</text></g><!--class console_log_strategy_simple_3f5f1de7--><g id="elem_console_log_strategy_simple_3f5f1de7"><rect codeLine="88" fill="#F1F1F1" height="178.375" id="console_log_strategy_simple_3f5f1de7" rx="2.5" ry="2.5" style="stroke:#181818;stroke-width:0.5;" width="562" x="1619" y="450"/><ellipse cx="1799.75" cy="466" fill="#ADD1B2" rx="11" ry="11" style="stroke:#181818;stroke-width:1.0;"/><path d="M1802.7188,471.6406 Q1802.1406,471.9375 1801.5,472.0781 Q1800.8594,472.2344 1800.1563,472.2344 Q1797.6563,472.2344 1796.3281,470.5938 Q1795.0156,468.9375 1795.0156,465.8125 Q1795.0156,462.6875 1796.3281,461.0313 Q1797.6563,459.375 1800.1563,459.375 Q1800.8594,459.375 1801.5,459.5313 Q1802.1563,459.6875 1802.7188,459.9844 L1802.7188,462.7031 Q1802.0938,462.125 1801.5,461.8594 Q1800.9063,461.5781 1800.2813,461.5781 Q1798.9375,461.5781 1798.25,462.6563 Q1797.5625,463.7188 1797.5625,465.8125 Q1797.5625,467.9063 1798.25,468.9844 Q1798.9375,470.0469 1800.2813,470.0469 Q1800.9063,470.0469 1801.5,469.7813 Q1802.0938,469.5 1802.7188,468.9219 L1802.7188,471.6406 Z " fill="#000000"/><text fill="#000000" font-family="sans-serif" font-size="14" lengthAdjust="spacing" textLength="192" x="1820.25" y="470.8467">ConsoleLogStrategySimple</text><line style="stroke:#181818;stroke-width:0.5;" x1="1620" x2="2180" y1="482" y2="482"/><line style="stroke:#181818;stroke-width:0.5;" x1="1620" x2="2180" y1="490" y2="490"/><text fill="#000000" font-family="sans-serif" font-size="14" lengthAdjust="spacing" textLength="550" x="1625" y="506.9951">LogTypeToFunctionName(type: LogLevelMapper): 'log' | 'info' | 'warn' | 'error'</text><text fill="#000000" font-family="sans-serif" font-size="14" lengthAdjust="spacing" textLength="99" x="1625" y="523.292">log(params: {</text><text fill="#000000" font-family="sans-serif" font-size="14" lengthAdjust="spacing" textLength="163" x="1645" y="539.5889">type: LogLevelMapper;</text><text fill="#000000" font-family="sans-serif" font-size="14" lengthAdjust="spacing" textLength="139" x="1645" y="555.8857">meta?: ObjectType;</text><text fill="#000000" font-family="sans-serif" font-size="14" lengthAdjust="spacing" textLength="119" x="1645" y="572.1826">datetime?: Date;</text><text fill="#000000" font-family="sans-serif" font-size="14" lengthAdjust="spacing" textLength="97" x="1645" y="588.4795">prefix?: string</text><text fill="#000000" font-family="sans-serif" font-size="14" lengthAdjust="spacing" textLength="13" x="1625" y="604.7764">},</text><text fill="#000000" font-family="sans-serif" font-size="14" lengthAdjust="spacing" textLength="252" x="1645" y="621.0732">...msgs: StringOrObjectType[]): void</text></g><g id="elem_type_util_77daba65"><rect fill="#F1F1F1" height="44.5938" style="stroke:#181818;stroke-width:0.5;" width="251" x="22.5" y="221"/><text fill="#000000" font-family="sans-serif" font-size="14" lengthAdjust="spacing" textLength="54" x="121" y="235.9951">typeUtil</text><line style="stroke:#181818;stroke-width:0.5;" x1="23.5" x2="272.5" y1="241.2969" y2="241.2969"/><text fill="#000000" font-family="sans-serif" font-size="14" lengthAdjust="spacing" textLength="239" x="28.5" y="258.292">@beecode/msh-util/lib/type-util.ts</text></g><!--reverse link type_util_77daba65 to logger_strategy_console_e43a732a--><g id="link_type_util_77daba65_logger_strategy_console_e43a732a"><path codeLine="101" d="M179.25,269.23 C211.07,292.75 262.87,326.62 314,341 C880.39,500.28 2391.86,249.36 2961,398.5 C2967.21,400.13 2973.44,401.93 2979.67,403.88 " fill="none" id="type_util_77daba65-backto-logger_strategy_console_e43a732a" style="stroke:#181818;stroke-width:1.0;"/><polygon fill="#181818" points="175.09,266.13,179.9243,274.7107,179.102,269.114,184.6987,268.2916,175.09,266.13" style="stroke:#181818;stroke-width:1.0;"/></g><!--reverse link log_level_mapper_d3d8c568 to logger_strategy_console_e43a732a--><g id="link_log_level_mapper_d3d8c568_logger_strategy_console_e43a732a"><path codeLine="102" d="M448.35,303.98 C462.39,318.78 479.24,332.77 498,341 C748.66,451.02 2696.26,328.89 2961,398.5 C2967.21,400.13 2973.44,401.94 2979.66,403.9 " fill="none" id="log_level_mapper_d3d8c568-backto-logger_strategy_console_e43a732a" style="stroke:#181818;stroke-width:1.0;"/><polygon fill="#181818" points="444.84,300.2,448.0579,309.5083,448.2521,303.8548,453.9056,304.049,444.84,300.2" style="stroke:#181818;stroke-width:1.0;"/></g><!--reverse link logger_strategy_params_765b9703 to logger_strategy_console_e43a732a--><g id="link_logger_strategy_params_765b9703_logger_strategy_console_e43a732a"><path codeLine="103" d="M726.05,91.33 C717.53,153.85 700.79,306.53 735,341 C822.14,428.81 2841.4,366.9 2961,398.5 C2967.21,400.14 2973.43,401.95 2979.66,403.92 " fill="none" id="logger_strategy_params_765b9703-backto-logger_strategy_console_e43a732a" style="stroke:#181818;stroke-width:1.0;"/><polygon fill="#181818" points="726.75,86.28,721.5545,94.647,726.0649,91.2328,729.4791,95.7432,726.75,86.28" style="stroke:#181818;stroke-width:1.0;"/></g><!--reverse link object_type_765b9703 to logger_strategy_console_e43a732a--><g id="link_object_type_765b9703_logger_strategy_console_e43a732a"><path codeLine="104" d="M616.76,270.15 C636.48,293.49 669.1,326.47 706,341 C939.21,432.82 2718.67,334.51 2961,398.5 C2967.21,400.14 2973.43,401.95 2979.66,403.92 " fill="none" id="object_type_765b9703-backto-logger_strategy_console_e43a732a" style="stroke:#181818;stroke-width:1.0;"/><polygon fill="#181818" points="613.47,266.2,616.1553,275.6757,616.6695,270.0423,622.303,270.5565,613.47,266.2" style="stroke:#181818;stroke-width:1.0;"/></g><!--reverse link console_log_strategy_c30e8046 to logger_strategy_console_e43a732a--><g id="link_console_log_strategy_c30e8046_logger_strategy_console_e43a732a"><path codeLine="105" d="M2771.46,268.69 C2820.76,298.16 2907.98,350.29 2992.64,400.9 " fill="none" id="console_log_strategy_c30e8046-backto-logger_strategy_console_e43a732a" style="stroke:#181818;stroke-width:1.0;"/><polygon fill="#181818" points="2767.1,266.08,2772.7792,274.1265,2771.3938,268.6419,2776.8783,267.2565,2767.1,266.08" style="stroke:#181818;stroke-width:1.0;"/></g><!--reverse link console_logger_params_e43a732a to logger_strategy_console_e43a732a--><g id="link_console_logger_params_e43a732a_logger_strategy_console_e43a732a"><path codeLine="106" d="M3106.96,287.9 C3120.81,318.01 3140.08,359.91 3158.9,400.81 " fill="none" id="console_logger_params_e43a732a-backto-logger_strategy_console_e43a732a" style="stroke:#181818;stroke-width:1.0;"/><polygon fill="#181818" points="3104.79,283.17,3104.9356,293.0178,3106.888,287.7085,3112.1972,289.661,3104.79,283.17" style="stroke:#181818;stroke-width:1.0;"/></g><!--reverse link logger_strategy_console_e43a732a to logger_strategy_console_e43a732a--><g id="link_logger_strategy_console_e43a732a_logger_strategy_console_e43a732a"><path codeLine="107" d="M3469.05,497.82 C3487.6,507.01 3499,520.74 3499,539 C3499,558.81 3485.58,573.28 3464.18,582.41 " fill="none" id="logger_strategy_console_e43a732a-backto-logger_strategy_console_e43a732a" style="stroke:#181818;stroke-width:1.0;"/><polygon fill="#181818" points="3464.18,495.59,3470.6902,502.9804,3468.724,497.6762,3474.0281,495.71,3464.18,495.59" style="stroke:#181818;stroke-width:1.0;"/></g><!--reverse link logger_strategy_765b9703 to logger_strategy_console_e43a732a--><g id="link_logger_strategy_765b9703_logger_strategy_console_e43a732a"><path codeLine="108" d="M2286.61,64.34 C2549.72,64.42 3235.22,68 3269,103 C3343.58,180.27 3321.45,304.86 3286.68,400.94 " fill="none" id="logger_strategy_765b9703-backto-logger_strategy_console_e43a732a" style="stroke:#181818;stroke-width:1.0;stroke-dasharray:7.0,7.0;"/><polygon fill="none" points="2286.55,71.34,2266.55,64.34,2286.55,57.34,2286.55,71.34" style="stroke:#181818;stroke-width:1.0;"/></g><!--reverse link log_level_mapper_d3d8c568 to console_log_strategy_new_relic_json_a992bd1c--><g id="link_log_level_mapper_d3d8c568_console_log_strategy_new_relic_json_a992bd1c"><path codeLine="109" d="M448.36,303.94 C462.41,318.74 479.26,332.73 498,341 C714.82,436.64 2408.46,314.37 2630,398.5 C2655.87,408.32 2680.56,424 2702.63,441.37 " fill="none" id="log_level_mapper_d3d8c568-backto-console_log_strategy_new_relic_json_a992bd1c" style="stroke:#181818;stroke-width:1.0;"/><polygon fill="#181818" points="444.86,300.16,448.0585,309.475,448.2644,303.8219,453.9176,304.0279,444.86,300.16" style="stroke:#181818;stroke-width:1.0;"/></g><!--reverse link object_type_765b9703 to console_log_strategy_new_relic_json_a992bd1c--><g id="link_object_type_765b9703_console_log_strategy_new_relic_json_a992bd1c"><path codeLine="110" d="M616.77,270.11 C636.5,293.43 669.13,326.39 706,341 C1103.67,498.57 2230.34,246.07 2630,398.5 C2655.85,408.36 2680.54,424.06 2702.61,441.43 " fill="none" id="object_type_765b9703-backto-console_log_strategy_new_relic_json_a992bd1c" style="stroke:#181818;stroke-width:1.0;"/><polygon fill="#181818" points="613.48,266.16,616.1653,275.6357,616.6795,270.0023,622.313,270.5165,613.48,266.16" style="stroke:#181818;stroke-width:1.0;"/></g><!--reverse link console_log_strategy_c30e8046 to console_log_strategy_new_relic_json_a992bd1c--><g id="link_console_log_strategy_c30e8046_console_log_strategy_new_relic_json_a992bd1c"><path codeLine="111" d="M2740.11,285.63 C2749,325.8 2762.87,388.42 2774.57,441.23 " fill="none" id="console_log_strategy_c30e8046-backto-console_log_strategy_new_relic_json_a992bd1c" style="stroke:#181818;stroke-width:1.0;stroke-dasharray:7.0,7.0;"/><polygon fill="none" points="2733.27,287.12,2735.78,266.08,2746.94,284.1,2733.27,287.12" style="stroke:#181818;stroke-width:1.0;"/></g><!--reverse link type_util_77daba65 to console_log_strategy_simple_3f5f1de7--><g id="link_type_util_77daba65_console_log_strategy_simple_3f5f1de7"><path codeLine="112" d="M179.61,269.2 C211.51,292.52 263.18,326.09 314,341 C591.69,422.47 1334.58,326.99 1615,398.5 C1660.37,410.07 1707.04,429.34 1749.13,449.91 " fill="none" id="type_util_77daba65-backto-console_log_strategy_simple_3f5f1de7" style="stroke:#181818;stroke-width:1.0;"/><polygon fill="#181818" points="175.44,266.12,180.294,274.6896,179.4588,269.0948,185.0537,268.2595,175.44,266.12" style="stroke:#181818;stroke-width:1.0;"/></g><!--reverse link log_level_mapper_d3d8c568 to console_log_strategy_simple_3f5f1de7--><g id="link_log_level_mapper_d3d8c568_console_log_strategy_simple_3f5f1de7"><path codeLine="113" d="M448.72,303.87 C462.72,318.59 479.46,332.55 498,341 C724.17,444.08 1374.38,336.21 1615,398.5 C1660.2,410.2 1706.7,429.44 1748.7,449.95 " fill="none" id="log_level_mapper_d3d8c568-backto-console_log_strategy_simple_3f5f1de7" style="stroke:#181818;stroke-width:1.0;"/><polygon fill="#181818" points="445.22,300.12,448.4379,309.4283,448.6321,303.7748,454.2856,303.969,445.22,300.12" style="stroke:#181818;stroke-width:1.0;"/></g><!--reverse link object_type_765b9703 to console_log_strategy_simple_3f5f1de7--><g id="link_object_type_765b9703_console_log_strategy_simple_3f5f1de7"><path codeLine="114" d="M617.25,270.25 C637.09,293.35 669.6,325.87 706,341 C892.9,418.68 1419.36,346.63 1615,398.5 C1659.86,410.39 1706.06,429.57 1747.86,449.94 " fill="none" id="object_type_765b9703-backto-console_log_strategy_simple_3f5f1de7" style="stroke:#181818;stroke-width:1.0;"/><polygon fill="#181818" points="613.93,266.34,616.6915,275.7938,617.1604,270.1564,622.7977,270.6252,613.93,266.34" style="stroke:#181818;stroke-width:1.0;"/></g><!--reverse link console_log_strategy_simple_3f5f1de7 to console_log_strategy_simple_3f5f1de7--><g id="link_console_log_strategy_simple_3f5f1de7_console_log_strategy_simple_3f5f1de7"><path codeLine="115" d="M2186.08,499.79 C2204.72,508.92 2216,521.99 2216,539 C2216,557.45 2202.73,571.26 2181.19,580.45 " fill="none" id="console_log_strategy_simple_3f5f1de7-backto-console_log_strategy_simple_3f5f1de7" style="stroke:#181818;stroke-width:1.0;"/><polygon fill="#181818" points="2181.19,497.55,2187.7194,504.9234,2185.7394,499.6244,2191.0384,497.6444,2181.19,497.55" style="stroke:#181818;stroke-width:1.0;"/></g><!--reverse link console_log_strategy_c30e8046 to console_log_strategy_simple_3f5f1de7--><g id="link_console_log_strategy_c30e8046_console_log_strategy_simple_3f5f1de7"><path codeLine="116" d="M2686.25,277.89 C2655.4,299.25 2612.62,325.72 2571,341 C2421.37,395.94 2369.84,353.26 2217,398.5 C2171.16,412.07 2123.23,430.66 2078.91,449.85 " fill="none" id="console_log_strategy_c30e8046-backto-console_log_strategy_simple_3f5f1de7" style="stroke:#181818;stroke-width:1.0;stroke-dasharray:7.0,7.0;"/><polygon fill="none" points="2682.57,271.92,2702.93,266.03,2690.68,283.33,2682.57,271.92" style="stroke:#181818;stroke-width:1.0;"/></g><!--reverse link logger_strategy_params_765b9703 to logger_strategy_void_9618f938--><g id="link_logger_strategy_params_765b9703_logger_strategy_void_9618f938"><path codeLine="117" d="M761.1,89.66 C779.75,104.75 804.79,125.01 830.53,145.84 " fill="none" id="logger_strategy_params_765b9703-backto-logger_strategy_void_9618f938" style="stroke:#181818;stroke-width:1.0;"/><polygon fill="#181818" points="756.98,86.33,761.4621,95.0999,760.8676,89.4743,766.4931,88.8798,756.98,86.33" style="stroke:#181818;stroke-width:1.0;"/></g><!--reverse link string_or_object_type_765b9703 to logger_strategy_void_9618f938--><g id="link_string_or_object_type_765b9703_logger_strategy_void_9618f938"><path codeLine="118" d="M950,91.57 C950,106.39 950,125.75 950,145.64 " fill="none" id="string_or_object_type_765b9703-backto-logger_strategy_void_9618f938" style="stroke:#181818;stroke-width:1.0;"/><polygon fill="#181818" points="950,86.33,946,95.33,950,91.33,954,95.33,950,86.33" style="stroke:#181818;stroke-width:1.0;"/></g><!--reverse link logger_strategy_void_9618f938 to logger_strategy_void_9618f938--><g id="link_logger_strategy_void_9618f938_logger_strategy_void_9618f938"><path codeLine="119" d="M1154.57,216.92 C1172.66,222.51 1184,231.37 1184,243.5 C1184,256.77 1170.43,266.13 1149.3,271.57 " fill="none" id="logger_strategy_void_9618f938-backto-logger_strategy_void_9618f938" style="stroke:#181818;stroke-width:1.0;"/><polygon fill="#181818" points="1149.3,215.43,1156.8771,221.7219,1154.1124,216.7866,1159.0477,214.022,1149.3,215.43" style="stroke:#181818;stroke-width:1.0;"/></g><!--reverse link logger_strategy_765b9703 to logger_strategy_void_9618f938--><g id="link_logger_strategy_765b9703_logger_strategy_void_9618f938"><path codeLine="120" d="M2083.26,65.58 C1845.93,68.5 1269.35,78.09 1185,103 C1151.55,112.87 1117.94,128.58 1087.02,145.95 " fill="none" id="logger_strategy_765b9703-backto-logger_strategy_void_9618f938" style="stroke:#181818;stroke-width:1.0;stroke-dasharray:7.0,7.0;"/><polygon fill="none" points="2083.38,58.58,2103.46,65.34,2083.55,72.58,2083.38,58.58" style="stroke:#181818;stroke-width:1.0;"/></g><!--SRC=[rLXPRziu47xFho2omCP1rqTyoVQYnsxIBbgqIU6cxKCQ49H8kShAea79IOFK_tr9IhH5YhBb0oWs3v4yd7k67uS2002VXfWmS1mpxnYW6F0dT0TE5xSSy7G4v1-9vbDm_9vEtfDx4dv0inbXaZca4nWA6fnA8iGTFF1w_S5I582Brtz__WSy1oUOkFF9oPB-UZo-6WiwOOoo5VtjvPihGGuYdwweN_yQNmhg0sAHeYwo9tNlY9T81oU4VKeOIiZayIDYQ1ehD_a2ZBCLE9DBqEdttA7JwkISvT4tK-wwucuaSOczA_cyVfmHQIKbmuJ_tbkr7eerY7rDSEL1DBbYHXIn94FAu27YKTrbC5e3wZhjuT17A6V3GmnhUUrxfDqPzDhWPia3m2g27B5Uh-T-FO6RVydZA8lkTWHGzBXq4e1RtQ8z1rRRnIoM-f1g1Jzj_XeEb3IirGDRrvVd8VSEX1cver-EWBwvDQufYMCq8HyPyOCVBrKE3PO4yHLh4cnP3gA4C1zvf5AdByFEU_yCI3ofDHgDpC7KUZoorEJczdG4xcc0DGK2OVQH5rYqZxm4ldqKU26DI8tUSqK19cdfqreMEkBK91yLw-E5A8xDYdpXHgrL4Tx0OVziu0yx0wqqgLkmgYTVzB3Iia9R5lxu5aaMA7GNbuifIZDy65soMmwZIZRE8LIjQgU0rgDHJCCKohDtoBVF0E6XldyapYYEhBOPp91k1pcTDj9W1e3pb3ajNW5dJAGniGOeOrnULPx7U5uWQb8ByFicWBlLEi_ImUUvb9XDh1Am35btMg7YDNqR9JK5boPQyghm0SarOFCt08iHRmoOIvMPiV1zI86Z9iudarsrqixu8ereu6_5VicKe1Bqb-lnTpeFCNUlviqP8r5IbaQNyjIWI9DFqMIs5RXbIJuosozXSo_XY91g6zbQcW-PJujJJNBFWmRi2_HWpvCAx7bIBNBlQdeijh46EU9YiDfadHOPjBfzOtDP1iXc9Y_ebgdIT2OtNHP6ovLvtC9E2tTzmtnk1jakc9w3aUiKuEsPiBhihATizzbsvf_PMc5gKWkOcqg2AU6B5_nLaMVw10Q-HOi3RFA5iTiaWXOpSaaUnYGCl7SnZSgp4v47o0GRlEDy40s7RHUVUOLaSL2ueq5qmGEA2AuPaQcefl5aIJkrWW_urKcF9uTFzQTWEZEES2t9iLo77R_dds5Ix4IkIlXmJT_C8oy9Q7I9flOpWZjvmbMVy4j9UjyMB_AABLwCY_d_Ez-Bmj2KFjF_2abUkOHu59FcDFvUdoT1s0m3LrOYMu1y0Oe5o1VWiEVwtPw_cgmKF8gCVEPSKbJU7gMC8w03zNkvabajDeM8_6LUgSN_ZKDCVJwhlx2OhIvR-c5dAnNhFhfKLsJx3b5TUks9j9CQowIyUrPCjYgQ6lDPu-UBqWz2Hs0xRDvSyHtKbHHjAqrPd9igM0aZrso9BUItJf9TpJR9iMkembfLOyKqhx__xxhdRLhMVuBSqHMDPwEE3LliFm00]--></g></svg>